<?xml version="1.0" encoding="UTF-8"?>
<!--Generator: Apple Native CoreSVG 175.5-->
<!DOCTYPE svg
PUBLIC "-//W3C//DTD SVG 1.1//EN"
       "http://www.w3.org/Graphics/SVG/1.1/DTD/svg11.dtd">
<svg version="1.1" xmlns="http://www.w3.org/2000/svg" xmlns:xlink="http://www.w3.org/1999/xlink" width="132.375" height="151.938">
 <g>
  <rect height="151.938" opacity="0" width="132.375" x="0" y="0"/>
  <path d="M66.3125 13.25C70.0625 13.25 72.875 10.375 72.875 6.625C72.875 2.9375 70 0 66.3125 0C62.6875 0 59.6875 3 59.6875 6.625C59.6875 10.3125 62.625 13.25 66.3125 13.25ZM36.4375 30.4375C40.1875 30.4375 43.0625 27.5625 43.0625 23.8125C43.0625 20.125 40.125 17.1875 36.4375 17.1875C32.875 17.1875 29.8125 20.1875 29.8125 23.8125C29.8125 27.5 32.75 30.4375 36.4375 30.4375ZM96.125 30.4375C99.875 30.4375 102.75 27.5625 102.75 23.8125C102.75 20.125 99.8125 17.1875 96.125 17.1875C92.5625 17.1875 89.5 20.1875 89.5 23.8125C89.5 27.5 92.4375 30.4375 96.125 30.4375ZM6.625 47.875C10.375 47.875 13.1875 45 13.1875 41.25C13.1875 37.625 10.3125 34.6875 6.625 34.6875C3 34.6875 0 37.6875 0 41.25C0 44.9375 2.9375 47.875 6.625 47.875ZM66.3125 50.1875C71.25 50.1875 75.1875 46.25 75.1875 41.25C75.1875 36.375 71.1875 32.375 66.3125 32.375C61.4375 32.375 57.375 36.4375 57.375 41.25C57.375 46.1875 61.375 50.1875 66.3125 50.1875ZM125.75 47.875C129.5 47.875 132.375 45 132.375 41.25C132.375 37.5625 129.438 34.6875 125.75 34.6875C122.125 34.6875 119.125 37.6875 119.125 41.25C119.125 44.9375 122.062 47.875 125.75 47.875ZM36.4375 67.5C41.4375 67.5 45.375 63.5625 45.375 58.5625C45.375 53.625 41.375 49.625 36.4375 49.625C31.625 49.625 27.5625 53.75 27.5625 58.5625C27.5625 63.5 31.5625 67.5 36.4375 67.5ZM96.125 67.5C101.125 67.5 105.062 63.5625 105.062 58.5625C105.062 53.625 101.062 49.625 96.125 49.625C91.3125 49.625 87.25 53.75 87.25 58.5625C87.25 63.5 91.25 67.5 96.125 67.5ZM6.625 82.5625C10.3125 82.5625 13.1875 79.625 13.1875 75.9375C13.1875 72.25 10.3125 69.3125 6.625 69.3125C3 69.3125 0 72.3125 0 75.9375C0 79.625 2.9375 82.5625 6.625 82.5625ZM66.3125 86.375C72.125 86.375 76.75 81.75 76.75 75.9375C76.75 70.1875 72 65.5 66.3125 65.5C60.625 65.5 55.875 70.25 55.875 75.9375C55.875 81.625 60.5625 86.375 66.3125 86.375ZM125.75 82.5625C129.5 82.5625 132.375 79.6875 132.375 75.9375C132.375 72.25 129.438 69.3125 125.75 69.3125C122.125 69.3125 119.125 72.3125 119.125 75.9375C119.125 79.625 122.062 82.5625 125.75 82.5625ZM36.4375 102.25C41.4375 102.25 45.375 98.3125 45.375 93.3125C45.375 88.375 41.375 84.375 36.4375 84.375C31.625 84.375 27.5625 88.4375 27.5625 93.3125C27.5625 98.1875 31.5625 102.25 36.4375 102.25ZM96.125 102.25C101.125 102.25 105.062 98.3125 105.062 93.3125C105.062 88.375 101.062 84.375 96.125 84.375C91.3125 84.375 87.25 88.4375 87.25 93.3125C87.25 98.1875 91.25 102.25 96.125 102.25ZM6.625 117.188C10.375 117.188 13.1875 114.312 13.1875 110.562C13.1875 106.938 10.3125 104 6.625 104C3 104 0 107 0 110.562C0 114.25 2.9375 117.188 6.625 117.188ZM66.3125 119.5C71.25 119.5 75.1875 115.562 75.1875 110.562C75.1875 105.688 71.1875 101.688 66.3125 101.688C61.5 101.688 57.375 105.75 57.375 110.562C57.375 115.5 61.375 119.5 66.3125 119.5ZM125.75 117.188C129.5 117.188 132.375 114.375 132.375 110.562C132.375 106.938 129.438 104 125.75 104C122.125 104 119.125 107 119.125 110.562C119.125 114.25 122.062 117.188 125.75 117.188ZM36.4375 134.625C40.1875 134.625 43.0625 131.812 43.0625 128.062C43.0625 124.375 40.125 121.438 36.4375 121.438C32.875 121.438 29.8125 124.438 29.8125 128.062C29.8125 131.75 32.75 134.625 36.4375 134.625ZM96.125 134.625C99.875 134.625 102.75 131.812 102.75 128.062C102.75 124.375 99.8125 121.438 96.125 121.438C92.5625 121.438 89.5 124.438 89.5 128.062C89.5 131.75 92.4375 134.625 96.125 134.625ZM66.3125 151.875C70.0625 151.875 72.875 149 72.875 145.25C72.875 141.562 70 138.625 66.3125 138.625C62.6875 138.625 59.6875 141.625 59.6875 145.25C59.6875 148.938 62.625 151.875 66.3125 151.875Z" fill="#000000" fill-opacity="0.85"/>
 </g>
</svg>