<?xml version="1.0" encoding="UTF-8"?>
<!--Generator: Apple Native CoreSVG 175.5-->
<!DOCTYPE svg
PUBLIC "-//W3C//DTD SVG 1.1//EN"
       "http://www.w3.org/Graphics/SVG/1.1/DTD/svg11.dtd">
<svg version="1.1" xmlns="http://www.w3.org/2000/svg" xmlns:xlink="http://www.w3.org/1999/xlink" width="129.312" height="148.938">
 <g>
  <rect height="148.938" opacity="0" width="129.312" x="0" y="0"/>
  <path d="M64.8125 10.1875C67.6875 10.1875 69.875 8.0625 69.875 5.125C69.875 2.25 67.625 0 64.8125 0C62 0 59.6875 2.3125 59.6875 5.125C59.6875 7.9375 61.9375 10.1875 64.8125 10.1875ZM34.9375 27.4375C37.875 27.4375 40.0625 25.25 40.0625 22.3125C40.0625 19.4375 37.8125 17.1875 34.9375 17.1875C32.1875 17.1875 29.8125 19.5625 29.8125 22.3125C29.8125 25.1875 32.0625 27.4375 34.9375 27.4375ZM94.625 27.4375C97.5625 27.4375 99.75 25.25 99.75 22.3125C99.75 19.4375 97.5 17.1875 94.625 17.1875C91.875 17.1875 89.5 19.5625 89.5 22.3125C89.5 25.1875 91.75 27.4375 94.625 27.4375ZM5.125 44.875C8 44.875 10.1875 42.6875 10.1875 39.75C10.1875 36.9375 7.9375 34.6875 5.125 34.6875C2.3125 34.6875 0 37 0 39.75C0 42.625 2.25 44.875 5.125 44.875ZM64.8125 44.875C67.6875 44.875 69.875 42.6875 69.875 39.75C69.875 36.9375 67.625 34.6875 64.8125 34.6875C62 34.6875 59.6875 37 59.6875 39.75C59.6875 42.625 61.9375 44.875 64.8125 44.875ZM124.25 44.875C127.188 44.875 129.312 42.6875 129.312 39.75C129.312 36.875 127.125 34.6875 124.25 34.6875C121.438 34.6875 119.125 37 119.125 39.75C119.125 42.625 121.375 44.875 124.25 44.875ZM34.9375 62.1875C37.875 62.1875 40.0625 60 40.0625 57.0625C40.0625 54.1875 37.8125 51.9375 34.9375 51.9375C32.1875 51.9375 29.8125 54.25 29.8125 57.0625C29.8125 59.9375 32.0625 62.1875 34.9375 62.1875ZM94.625 62.1875C97.5625 62.1875 99.75 60 99.75 57.0625C99.75 54.1875 97.5 51.9375 94.625 51.9375C91.875 51.9375 89.5 54.25 89.5 57.0625C89.5 59.9375 91.75 62.1875 94.625 62.1875ZM5.125 79.5C8 79.5 10.1875 77.375 10.1875 74.4375C10.1875 71.5625 7.9375 69.3125 5.125 69.3125C2.3125 69.3125 0 71.625 0 74.4375C0 77.25 2.25 79.5 5.125 79.5ZM64.8125 79.5C67.6875 79.5 69.875 77.375 69.875 74.4375C69.875 71.5625 67.625 69.3125 64.8125 69.3125C62 69.3125 59.6875 71.625 59.6875 74.4375C59.6875 77.25 61.9375 79.5 64.8125 79.5ZM124.25 79.5C127.188 79.5 129.312 77.375 129.312 74.4375C129.312 71.5625 127.125 69.3125 124.25 69.3125C121.438 69.3125 119.125 71.6875 119.125 74.4375C119.125 77.25 121.375 79.5 124.25 79.5ZM34.9375 96.875C37.875 96.875 40.0625 94.75 40.0625 91.8125C40.0625 88.9375 37.8125 86.6875 34.9375 86.6875C32.1875 86.6875 29.8125 89 29.8125 91.8125C29.8125 94.6875 32.0625 96.875 34.9375 96.875ZM94.625 96.875C97.5625 96.875 99.75 94.75 99.75 91.8125C99.75 88.9375 97.5 86.6875 94.625 86.6875C91.875 86.6875 89.5 89 89.5 91.8125C89.5 94.6875 91.75 96.875 94.625 96.875ZM5.125 114.188C8 114.188 10.1875 112 10.1875 109.062C10.1875 106.25 7.9375 104 5.125 104C2.3125 104 0 106.312 0 109.062C0 111.938 2.25 114.188 5.125 114.188ZM64.8125 114.188C67.6875 114.188 69.875 112 69.875 109.062C69.875 106.25 67.625 104 64.8125 104C62 104 59.6875 106.312 59.6875 109.062C59.6875 111.938 61.9375 114.188 64.8125 114.188ZM124.25 114.188C127.188 114.188 129.312 112.062 129.312 109.062C129.312 106.25 127.062 104 124.25 104C121.438 104 119.125 106.312 119.125 109.062C119.125 111.938 121.375 114.188 124.25 114.188ZM34.9375 131.625C37.875 131.625 40.0625 129.5 40.0625 126.562C40.0625 123.688 37.8125 121.438 34.9375 121.438C32.1875 121.438 29.8125 123.75 29.8125 126.562C29.8125 129.375 32.0625 131.625 34.9375 131.625ZM94.625 131.625C97.5625 131.625 99.75 129.5 99.75 126.562C99.75 123.688 97.5 121.438 94.625 121.438C91.875 121.438 89.5 123.75 89.5 126.562C89.5 129.375 91.75 131.625 94.625 131.625ZM64.8125 148.875C67.6875 148.875 69.875 146.688 69.875 143.75C69.875 140.875 67.625 138.625 64.8125 138.625C62 138.625 59.6875 141 59.6875 143.75C59.6875 146.625 61.9375 148.875 64.8125 148.875Z" fill="#000000" fill-opacity="0.85"/>
 </g>
</svg>