<?xml version="1.0" encoding="UTF-8"?>
<!--Generator: Apple Native CoreSVG 175.5-->
<!DOCTYPE svg
PUBLIC "-//W3C//DTD SVG 1.1//EN"
       "http://www.w3.org/Graphics/SVG/1.1/DTD/svg11.dtd">
<svg version="1.1" xmlns="http://www.w3.org/2000/svg" xmlns:xlink="http://www.w3.org/1999/xlink" width="162.875" height="155.188">
 <g>
  <rect height="155.188" opacity="0" width="162.875" x="0" y="0"/>
  <path d="M67.875 16.4375C72.5625 16.4375 76.125 12.875 76.125 8.25C76.125 3.6875 72.4375 0 67.875 0C63.4375 0 59.6875 3.75 59.6875 8.25C59.6875 12.8125 63.375 16.4375 67.875 16.4375ZM38.0625 33.6875C42.6875 33.6875 46.25 30.0625 46.25 25.4375C46.25 20.875 42.625 17.25 38.0625 17.25C33.5625 17.25 29.875 20.9375 29.875 25.4375C29.875 30 33.5 33.6875 38.0625 33.6875ZM97.75 33.6875C102.375 33.6875 105.938 30.0625 105.938 25.4375C105.938 20.875 102.312 17.25 97.75 17.25C93.25 17.25 89.5625 20.9375 89.5625 25.4375C89.5625 30 93.1875 33.6875 97.75 33.6875ZM8.25 51.125C12.875 51.125 16.4375 47.5 16.4375 42.875C16.4375 38.3125 12.75 34.6875 8.25 34.6875C3.75 34.6875 0 38.375 0 42.875C0 47.4375 3.6875 51.125 8.25 51.125ZM67.875 53.4375C73.75 53.4375 78.4375 48.75 78.4375 42.875C78.4375 37.125 73.6875 32.375 67.875 32.375C62.1875 32.375 57.375 37.1875 57.375 42.875C57.375 48.6875 62.125 53.4375 67.875 53.4375ZM127.375 51.125C132 51.125 135.562 47.5 135.562 42.875C135.562 38.3125 131.938 34.6875 127.375 34.6875C122.875 34.6875 119.125 38.4375 119.125 42.875C119.125 47.4375 122.812 51.125 127.375 51.125ZM38.0625 70.6875C43.9375 70.6875 48.5625 66.0625 48.5625 60.1875C48.5625 54.375 43.8125 49.6875 38.0625 49.6875C32.375 49.6875 27.5625 54.5 27.5625 60.1875C27.5625 66 32.25 70.6875 38.0625 70.6875ZM97.75 70.6875C103.625 70.6875 108.25 66.0625 108.25 60.1875C108.25 54.375 103.5 49.6875 97.75 49.6875C92.0625 49.6875 87.25 54.5 87.25 60.1875C87.25 66 91.9375 70.6875 97.75 70.6875ZM8.25 85.75C12.875 85.75 16.4375 82.1875 16.4375 77.5625C16.4375 73 12.75 69.375 8.25 69.375C3.75 69.375 0 73.0625 0 77.5625C0 82.125 3.6875 85.75 8.25 85.75ZM67.875 89.5625C74.5625 89.5625 79.9375 84.25 79.9375 77.5625C79.9375 70.9375 74.5 65.5625 67.875 65.5625C61.375 65.5625 55.875 71 55.875 77.5625C55.875 84.1875 61.3125 89.5625 67.875 89.5625ZM134.875 80.8125C135.312 79.8125 135.562 78.6875 135.562 77.5625C135.562 73 131.938 69.375 127.375 69.375C122.875 69.375 119.125 73.0625 119.125 77.5625C119.125 78.5625 119.375 79.625 119.812 80.75C122.125 79.6875 124.688 79 127.375 79C130 79 132.625 79.6875 134.875 80.8125ZM38.0625 105.438C43.875 105.438 48.5625 100.812 48.5625 94.9375C48.5625 89.125 43.8125 84.375 38.0625 84.375C32.375 84.375 27.5625 89.1875 27.5625 94.9375C27.5625 100.688 32.3125 105.438 38.0625 105.438ZM97.75 105.438C99.4375 105.438 101 105 102.375 104.312L108.125 93.9375L108.125 93.625C107.5 88.4375 103.125 84.375 97.75 84.375C92.0625 84.375 87.25 89.1875 87.25 94.9375C87.25 100.688 92 105.438 97.75 105.438ZM8.25 120.438C12.875 120.438 16.4375 116.875 16.4375 112.188C16.4375 107.688 12.75 104 8.25 104C3.75 104 0 107.75 0 112.188C0 116.812 3.625 120.438 8.25 120.438ZM67.875 122.75C73.75 122.75 78.4375 118.062 78.4375 112.188C78.4375 106.438 73.6875 101.688 67.875 101.688C62.1875 101.688 57.375 106.5 57.375 112.188C57.375 118 62.125 122.75 67.875 122.75ZM38.0625 137.875C42.6875 137.875 46.25 134.312 46.25 129.688C46.25 125.125 42.625 121.438 38.0625 121.438C33.5625 121.438 29.875 125.188 29.875 129.688C29.875 134.25 33.5 137.875 38.0625 137.875ZM67.875 155.062C72.5625 155.062 76.125 151.5 76.125 146.875C76.125 142.312 72.4375 138.688 67.875 138.688C63.4375 138.688 59.6875 142.375 59.6875 146.875C59.6875 151.438 63.375 155.062 67.875 155.062ZM100.25 152.75L154.375 152.75C159.562 152.75 162.875 149.125 162.875 144.375C162.875 142.938 162.5 141.562 161.688 140.188L134.562 91.8125C132.938 88.9375 130.125 87.5625 127.375 87.5625C124.5 87.5625 121.625 88.9375 120.062 91.8125L93 140.25C92.1875 141.562 91.8125 142.938 91.8125 144.375C91.8125 149.125 95.0625 152.75 100.25 152.75ZM127.312 143.25C124.438 143.25 122.062 140.875 122.062 137.938C122.062 135.062 124.5 132.688 127.312 132.688C130.25 132.688 132.625 135.125 132.625 137.938C132.625 140.875 130.25 143.25 127.312 143.25ZM127.375 128.312C125.188 128.312 123.625 126.812 123.562 124.688L123.062 106.875C123 104.312 124.75 102.562 127.375 102.562C129.938 102.562 131.688 104.312 131.625 106.875L131.125 124.688C131.062 126.812 129.562 128.312 127.375 128.312Z" fill="#000000" fill-opacity="0.85"/>
 </g>
</svg>