<?xml version="1.0" encoding="UTF-8"?>
<!--Generator: Apple Native CoreSVG 175.5-->
<!DOCTYPE svg
PUBLIC "-//W3C//DTD SVG 1.1//EN"
       "http://www.w3.org/Graphics/SVG/1.1/DTD/svg11.dtd">
<svg version="1.1" xmlns="http://www.w3.org/2000/svg" xmlns:xlink="http://www.w3.org/1999/xlink" width="150.25" height="118.188">
 <g>
  <rect height="118.188" opacity="0" width="150.25" x="0" y="0"/>
  <path d="M31.5 118.062L112.875 118.062C133.938 118.062 150.25 102.125 150.25 81.75C150.25 61.1875 133.625 45.6875 110.875 45.6875C102.562 29.1875 87.3125 19.125 68.8125 19.125C44.5625 19.125 24 37.9375 21.8125 62.875C9.3125 66.4375 0.875 76.9375 0.875 90.1875C0.875 105.625 12.0625 118.062 31.5 118.062ZM31.375 108C18.5625 108 10.9375 101.062 10.9375 90.5C10.9375 81.5 16.6875 75.0625 26.8125 72.375C30.3125 71.5 31.625 69.875 31.875 66.25C33.375 45.0625 49.25 29.1875 68.8125 29.1875C83.8125 29.1875 95.5 37.5625 102.5 51.9375C103.938 55 105.75 56.0625 109.562 56.0625C129.125 56.0625 140.188 67.875 140.188 82C140.188 96.5625 128.5 108 113.562 108ZM8.75 56.875C13.5625 56.875 17.4375 53 17.4375 48.125C17.4375 43.3125 13.5625 39.4375 8.75 39.4375C3.875 39.4375 0 43.3125 0 48.125C0 53 3.875 56.875 8.75 56.875ZM100.375 16.4375C104.875 16.4375 108.562 12.75 108.562 8.25C108.562 3.75 104.875 0 100.375 0C95.875 0 92.1875 3.75 92.1875 8.25C92.1875 12.75 95.875 16.4375 100.375 16.4375ZM126.688 38.0625C133.438 38.0625 138.875 32.625 138.875 25.75C138.875 18.9375 133.438 13.5 126.688 13.5C119.812 13.5 114.312 18.9375 114.312 25.75C114.312 32.625 119.812 38.0625 126.688 38.0625ZM55 96.5C63.125 96.5 68.125 90.625 68.3125 84.25C68.375 82.0625 67.0625 80.5625 65.125 80.5625C63.25 80.5625 62.25 81.625 61.75 83.75C61.0625 86.9375 59.25 90.3125 55 90.3125C48.75 90.3125 46.8125 83.6875 46.8125 76.5C46.8125 69.75 48.875 62.9375 54.9375 62.9375C59.1875 62.9375 60.875 66.25 61.5625 69.4375C62.0625 71.5625 63.0625 72.625 64.9375 72.625C66.875 72.625 68.1875 71.1875 68.125 68.9375C67.9375 62.5625 62.9375 56.75 54.8125 56.75C44.5625 56.75 39.9375 65.625 39.9375 76.5C39.9375 87.1875 44.1875 96.5 55 96.5ZM85.25 96.5C94.3125 96.5 100 88.75 100 76.625C100 64.4375 94.3125 56.75 85.1875 56.75C76.0625 56.75 70.3125 64.4375 70.3125 76.625C70.3125 88.75 76.0625 96.5 85.25 96.5ZM85.25 90.3125C80.25 90.3125 77.1875 85.25 77.1875 76.625C77.1875 68 80.25 62.9375 85.1875 62.9375C90.125 62.9375 93.1875 68 93.1875 76.625C93.1875 85.25 90.125 90.3125 85.25 90.3125ZM104.188 99L114.312 99C115.562 99 116.562 97.875 116.562 96.625C116.562 95.4375 115.5 94.375 114.312 94.375L109.5 94.375L111.5 92.25C114 89.8125 115.75 87.5 115.75 85C115.75 81.5 112.875 78.9375 108.875 78.9375C104.625 78.9375 102 82.125 102 84.8125C102 86.375 103.125 87.3125 104.375 87.3125C105.875 87.3125 106.562 86.25 106.938 85.375C107.312 84.1875 107.938 83.5625 108.938 83.5625C109.875 83.5625 110.562 84.25 110.562 85.125C110.562 86.5625 109.188 88.1875 107.812 89.5625L103 94.5C102.438 95.0625 102.062 96 102.062 96.75C102.062 98 103 99 104.188 99Z" fill="#000000" fill-opacity="0.85"/>
 </g>
</svg>