<?xml version="1.0" encoding="UTF-8"?>
<!--Generator: Apple Native CoreSVG 175.5-->
<!DOCTYPE svg
PUBLIC "-//W3C//DTD SVG 1.1//EN"
       "http://www.w3.org/Graphics/SVG/1.1/DTD/svg11.dtd">
<svg version="1.1" xmlns="http://www.w3.org/2000/svg" xmlns:xlink="http://www.w3.org/1999/xlink" width="150.25" height="118.188">
 <g>
  <rect height="118.188" opacity="0" width="150.25" x="0" y="0"/>
  <path d="M31.5 118.062L112.875 118.062C133.938 118.062 150.25 102.125 150.25 81.75C150.25 61.1875 133.625 45.6875 110.875 45.6875C102.562 29.1875 87.3125 19.125 68.8125 19.125C44.5625 19.125 24 37.9375 21.8125 62.875C9.3125 66.4375 0.875 76.9375 0.875 90.1875C0.875 105.625 12.0625 118.062 31.5 118.062ZM31.375 108C18.5625 108 10.9375 101.062 10.9375 90.5C10.9375 81.5 16.6875 75.0625 26.8125 72.375C30.3125 71.5 31.625 69.875 31.875 66.25C33.375 45.0625 49.25 29.1875 68.8125 29.1875C83.8125 29.1875 95.5 37.5625 102.5 51.9375C103.938 55 105.75 56.0625 109.562 56.0625C129.125 56.0625 140.188 67.875 140.188 82C140.188 96.5625 128.5 108 113.562 108ZM8.75 56.875C13.5625 56.875 17.4375 53 17.4375 48.125C17.4375 43.3125 13.5625 39.4375 8.75 39.4375C3.875 39.4375 0 43.3125 0 48.125C0 53 3.875 56.875 8.75 56.875ZM100.375 16.4375C104.875 16.4375 108.562 12.75 108.562 8.25C108.562 3.75 104.875 0 100.375 0C95.875 0 92.1875 3.75 92.1875 8.25C92.1875 12.75 95.875 16.4375 100.375 16.4375ZM126.688 38.0625C133.438 38.0625 138.875 32.625 138.875 25.75C138.875 18.9375 133.438 13.5 126.688 13.5C119.812 13.5 114.312 18.9375 114.312 25.75C114.312 32.625 119.812 38.0625 126.688 38.0625ZM59.125 96.5C67.3125 96.5 72.25 90.625 72.5 84.25C72.5625 82.0625 71.25 80.5625 69.25 80.5625C67.375 80.5625 66.4375 81.625 65.9375 83.75C65.25 86.9375 63.375 90.3125 59.125 90.3125C52.9375 90.3125 51 83.6875 51 76.5C51 69.75 53.0625 62.9375 59.0625 62.9375C63.3125 62.9375 65 66.25 65.75 69.4375C66.25 71.5625 67.1875 72.625 69.0625 72.625C71.0625 72.625 72.375 71.1875 72.3125 68.9375C72.0625 62.5625 67.125 56.75 58.9375 56.75C48.75 56.75 44.125 65.625 44.125 76.5C44.125 87.1875 48.3125 96.5 59.125 96.5ZM89.375 96.5C98.4375 96.5 104.188 88.75 104.188 76.625C104.188 64.4375 98.4375 56.75 89.375 56.75C80.25 56.75 74.4375 64.4375 74.4375 76.625C74.4375 88.75 80.25 96.5 89.375 96.5ZM89.375 90.3125C84.4375 90.3125 81.375 85.25 81.375 76.625C81.375 68 84.4375 62.9375 89.375 62.9375C94.25 62.9375 97.3125 68 97.3125 76.625C97.3125 85.25 94.25 90.3125 89.375 90.3125Z" fill="#000000" fill-opacity="0.85"/>
 </g>
</svg>