<?xml version="1.0" encoding="UTF-8"?>
<!--Generator: Apple Native CoreSVG 175.5-->
<!DOCTYPE svg
PUBLIC "-//W3C//DTD SVG 1.1//EN"
       "http://www.w3.org/Graphics/SVG/1.1/DTD/svg11.dtd">
<svg version="1.1" xmlns="http://www.w3.org/2000/svg" xmlns:xlink="http://www.w3.org/1999/xlink" width="142.688" height="155.562">
 <g>
  <rect height="155.562" opacity="0" width="142.688" x="0" y="0"/>
  <path d="M29.375 100.875L106.938 100.875C127.438 100.875 142.688 85.3125 142.688 66.0625C142.688 46.125 126.438 31.5625 105.25 31.5625C97.4375 16.125 82.9375 6.1875 64.875 6.1875C41.375 6.1875 22 24.625 19.9375 47.8125C8.625 51.125 0 60.9375 0 74.125C0 88.9375 10.75 100.875 29.375 100.875ZM29.25 90.875C16.4375 90.875 10 83.6875 10 74.4375C10 66.9375 14.375 60.1875 25 57.375C28.4375 56.4375 29.6875 54.8125 30 51.3125C31.4375 30.875 46.75 16.1875 64.875 16.1875C78.9375 16.1875 90 23.9375 96.75 37.75C98.1875 40.8125 100.062 41.875 103.75 41.875C122.25 41.875 132.688 53 132.688 66.3125C132.688 79.9375 121.812 90.875 107.562 90.875ZM32.9375 132.062C34.0625 132.062 34.875 131 34.8125 129.875L34.4375 123.875L39.375 127.25C40.25 127.875 41.6875 127.625 42.3125 126.688C42.875 125.75 42.5625 124.312 41.3125 123.75L36 121.125L41.375 118.438C42.5625 117.875 42.8125 116.562 42.375 115.562C41.8125 114.562 40.25 114.375 39.375 115L34.4375 118.438L34.875 112.438C35 111.25 34.0625 110.25 32.9375 110.25C31.625 110.25 30.875 111.25 30.9375 112.438L31.3125 118.438L26.3125 115C25.375 114.375 24.0625 114.5 23.4375 115.562C22.875 116.562 23.125 117.875 24.3125 118.438L29.6875 121.125L24.3125 123.75C23.125 124.312 22.8125 125.688 23.375 126.688C23.9375 127.688 25.375 127.875 26.3125 127.312L31.3125 123.938L31 129.875C30.9375 131 31.625 132.062 32.9375 132.062ZM67.5625 132.062C68.6875 132.062 69.5 131 69.4375 129.875L69.0625 123.875L74 127.25C74.875 127.875 76.3125 127.625 76.9375 126.688C77.5 125.75 77.1875 124.312 75.9375 123.75L70.5625 121.125L76 118.438C77.1875 117.875 77.4375 116.562 77 115.562C76.4375 114.562 74.875 114.375 74 115L69.0625 118.438L69.5 112.438C69.625 111.25 68.6875 110.25 67.5625 110.25C66.25 110.25 65.5 111.25 65.5625 112.438L65.9375 118.438L60.875 115C60 114.375 58.6875 114.5 58.0625 115.562C57.5 116.562 57.75 117.875 58.9375 118.438L64.3125 121.125L58.9375 123.75C57.75 124.312 57.4375 125.688 58 126.688C58.5625 127.688 60 127.875 60.875 127.312L65.9375 123.938L65.625 129.875C65.5625 131 66.25 132.062 67.5625 132.062ZM102.188 132.062C103.312 132.062 104.125 131 104.062 129.875L103.625 123.875L108.625 127.25C109.5 127.875 110.938 127.625 111.562 126.688C112.125 125.75 111.812 124.312 110.562 123.75L105.188 121.125L110.625 118.438C111.812 117.875 112.062 116.562 111.625 115.562C111.062 114.562 109.5 114.375 108.625 115L103.625 118.438L104.125 112.438C104.25 111.25 103.312 110.25 102.188 110.25C100.875 110.25 100.125 111.25 100.188 112.438L100.562 118.438L95.5 115C94.625 114.375 93.3125 114.5 92.6875 115.562C92.125 116.562 92.375 117.875 93.5625 118.438L98.9375 121.125L93.5625 123.75C92.375 124.312 92.0625 125.688 92.625 126.688C93.1875 127.688 94.625 127.875 95.5 127.312L100.562 123.938L100.25 129.875C100.188 131 100.875 132.062 102.188 132.062ZM19.375 155.562C20.5 155.562 21.3125 154.438 21.25 153.312L20.875 147.375L25.8125 150.75C26.75 151.312 28.125 151.062 28.75 150.125C29.3125 149.188 29 147.75 27.75 147.188L22.4375 144.625L27.8125 141.938C29 141.375 29.25 140 28.8125 139.062C28.25 138.062 26.75 137.875 25.8125 138.438L20.875 141.938L21.3125 135.875C21.4375 134.688 20.5 133.688 19.375 133.688C18.0625 133.688 17.3125 134.688 17.375 135.875L17.75 141.938L12.75 138.438C11.8125 137.875 10.5 138 9.875 139.062C9.3125 140 9.5625 141.312 10.75 141.938L16.125 144.625L10.75 147.25C9.5625 147.812 9.25 149.125 9.8125 150.125C10.375 151.188 11.8125 151.375 12.75 150.75L17.75 147.375L17.4375 153.312C17.375 154.438 18.0625 155.562 19.375 155.562ZM54 155.562C55.125 155.562 55.9375 154.438 55.875 153.312L55.5 147.375L60.4375 150.75C61.3125 151.312 62.75 151.062 63.375 150.125C63.9375 149.188 63.625 147.75 62.375 147.188L57 144.625L62.4375 141.938C63.625 141.375 63.875 140 63.4375 139.062C62.875 138.062 61.3125 137.875 60.4375 138.438L55.5 141.938L55.9375 135.875C56.0625 134.688 55.125 133.688 54 133.688C52.6875 133.688 51.9375 134.688 52 135.875L52.375 141.938L47.3125 138.438C46.4375 137.875 45.125 138 44.5 139.062C43.9375 140 44.1875 141.312 45.375 141.938L50.75 144.625L45.375 147.25C44.1875 147.812 43.875 149.125 44.4375 150.125C45 151.188 46.4375 151.375 47.3125 150.75L52.375 147.375L52.0625 153.312C52 154.438 52.6875 155.562 54 155.562ZM88.625 155.562C89.75 155.562 90.5625 154.438 90.5 153.312L90.0625 147.375L95.0625 150.75C95.9375 151.312 97.375 151.062 98 150.125C98.5625 149.188 98.25 147.75 97 147.188L91.625 144.625L97.0625 141.938C98.25 141.375 98.5 140 98.0625 139.062C97.5 138.062 95.9375 137.875 95.0625 138.438L90.0625 141.938L90.5625 135.875C90.6875 134.688 89.75 133.688 88.625 133.688C87.3125 133.688 86.5625 134.688 86.625 135.875L87 141.938L81.9375 138.438C81.0625 137.875 79.75 138 79.125 139.062C78.5625 140 78.8125 141.312 80 141.938L85.375 144.625L80 147.25C78.8125 147.812 78.5 149.125 79.0625 150.125C79.625 151.188 81.0625 151.375 81.9375 150.75L87 147.375L86.6875 153.312C86.625 154.438 87.3125 155.562 88.625 155.562Z" fill="#000000" fill-opacity="0.85"/>
 </g>
</svg>