<?xml version="1.0" encoding="UTF-8"?>
<!--Generator: Apple Native CoreSVG 175.5-->
<!DOCTYPE svg
PUBLIC "-//W3C//DTD SVG 1.1//EN"
       "http://www.w3.org/Graphics/SVG/1.1/DTD/svg11.dtd">
<svg version="1.1" xmlns="http://www.w3.org/2000/svg" xmlns:xlink="http://www.w3.org/1999/xlink" width="181.625" height="182.024">
 <g>
  <rect height="182.024" opacity="0" width="181.625" x="0" y="0"/>
  <path d="M26.5 129.481L94.125 129.481C112.188 129.481 126.25 115.793 126.25 98.1682C126.25 80.6682 112.062 67.4807 93.3125 67.2307C86 53.5432 72.9375 45.1057 57.5 45.1057C36.8125 45.1057 19.5 61.1057 17.4375 81.6057C7.0625 84.9182 0 93.9182 0 105.293C0 119.356 10.625 129.481 26.5 129.481ZM26.25 119.481C15.625 119.481 10 113.356 10 105.543C10 98.9182 13.875 93.0432 23.0625 90.6057C26.0625 89.7932 27.1875 88.4182 27.4375 85.2932C28.875 67.7932 41.875 55.1682 57.5 55.1682C69.625 55.1682 79.0625 61.7932 84.875 73.4807C86.25 76.1682 87.75 77.1057 90.9375 77.1057C107.125 77.1057 116.188 86.7932 116.188 98.4807C116.188 110.106 106.688 119.481 94.3125 119.481ZM116.938 36.9807C99.75 36.9807 86 50.7932 86 67.9807C86 68.7307 86.0625 69.4807 86.125 70.1682L95.5625 71.1057C95.3125 70.0432 95.1875 69.0432 95.1875 67.9807C95.1875 55.7307 104.75 46.1682 116.938 46.1682C129.125 46.1682 138.688 55.7307 138.688 67.9807C138.688 77.8557 132.375 86.1682 123.375 89.0432L123.438 98.4807C137.5 95.2932 147.812 82.7932 147.812 67.9807C147.812 50.7932 134.125 36.9807 116.938 36.9807ZM80.6875 39.1057C82.75 41.1682 86.125 41.1057 88.0625 39.1057C90 37.1057 90.0625 33.8557 88.0625 31.8557L78.4375 22.1682C76.4375 20.1682 73.1875 20.1682 71.1875 22.1682C69.1875 24.1682 69.125 27.4807 71.1875 29.5432ZM116.938 27.0432C119.812 27.0432 122.125 24.6682 122.125 21.8557L122.125 8.35573C122.125 5.48073 119.812 3.16823 116.938 3.16823C114.062 3.16823 111.75 5.48073 111.75 8.35573L111.75 21.8557C111.75 24.6682 114.062 27.0432 116.938 27.0432ZM145.812 39.1057C147.75 41.1057 151.125 41.1682 153.188 39.1057L162.75 29.5432C164.75 27.4807 164.75 24.1682 162.75 22.1682C160.75 20.1682 157.5 20.1682 155.5 22.1682L145.812 31.8557C143.812 33.8557 143.875 37.1057 145.812 39.1057ZM162.938 73.1682L176.5 73.1682C179.312 73.1682 181.625 70.8557 181.625 67.9807C181.625 65.1057 179.312 62.7932 176.5 62.7932L162.938 62.7932C160.188 62.7932 157.75 65.1057 157.75 67.9807C157.75 70.8557 160.188 73.1682 162.938 73.1682ZM155.5 113.856C157.5 115.856 160.75 115.793 162.75 113.793C164.75 111.793 164.75 108.481 162.75 106.543L153.062 96.9182C151.062 94.9807 147.812 94.9182 145.812 96.9182C143.812 98.9182 143.812 102.231 145.812 104.231ZM78.25 151.543L64.5625 151.543L64.4375 154.231L71.5625 140.668C72.25 139.356 71.6875 138.356 70.3125 138.356L57.25 138.356C55.5625 138.356 55 138.981 54.4375 140.231L46.4375 158.418C45.8125 159.856 46.4375 160.793 48.0625 160.793L59.25 160.793L60 157.168L50.5 180.168C50.125 180.981 50.3125 181.668 50.875 181.918C51.4375 182.168 52.125 181.981 52.75 181.293L79.1875 154.543C80.4375 153.231 80 151.543 78.25 151.543Z" fill="#000000" fill-opacity="0.85"/>
 </g>
</svg>