<?xml version="1.0" encoding="UTF-8"?>
<!--Generator: Apple Native CoreSVG 175.5-->
<!DOCTYPE svg
PUBLIC "-//W3C//DTD SVG 1.1//EN"
       "http://www.w3.org/Graphics/SVG/1.1/DTD/svg11.dtd">
<svg version="1.1" xmlns="http://www.w3.org/2000/svg" xmlns:xlink="http://www.w3.org/1999/xlink" width="142.688" height="144.1">
 <g>
  <rect height="144.1" opacity="0" width="142.688" x="0" y="0"/>
  <path d="M29.375 95.1435L106.938 95.1435C127.438 95.1435 142.688 79.581 142.688 60.331C142.688 40.3935 126.438 25.831 105.25 25.831C97.4375 10.3935 82.9375 0.456042 64.875 0.456042C41.375 0.456042 22 18.8935 19.9375 42.081C8.625 45.3935 0 55.206 0 68.3935C0 83.206 10.75 95.1435 29.375 95.1435ZM29.25 85.1435C16.4375 85.1435 10 77.956 10 68.706C10 61.206 14.375 54.456 25 51.6435C28.4375 50.706 29.6875 49.081 30 45.581C31.4375 25.1435 46.75 10.456 64.875 10.456C78.9375 10.456 90 18.206 96.75 32.0185C98.1875 35.081 100.062 36.1435 103.75 36.1435C122.25 36.1435 132.688 47.2685 132.688 60.581C132.688 74.206 121.812 85.1435 107.562 85.1435ZM18.1875 142.144L36.5625 110.331C37.6875 108.331 37.0625 106.206 35.1875 105.144C33.3125 104.019 31.1875 104.581 30.0625 106.581L11.625 138.519C10.625 140.269 11.125 142.456 13 143.581C14.875 144.644 17.125 144.019 18.1875 142.144ZM43.125 142.144L61.4375 110.331C62.5625 108.331 62 106.206 60.125 105.144C58.1875 104.019 56.0625 104.581 54.9375 106.581L36.5625 138.519C35.5625 140.269 36 142.456 37.9375 143.581C39.8125 144.644 42.0625 144.019 43.125 142.144ZM68 142.144L86.3125 110.331C87.4375 108.331 86.875 106.206 85 105.144C83.0625 104.019 80.9375 104.581 79.8125 106.581L61.4375 138.519C60.4375 140.269 60.875 142.456 62.8125 143.581C64.6875 144.644 66.9375 144.019 68 142.144ZM92.6875 142.206L111.188 110.206C112.25 108.331 111.688 106.081 109.812 105.144C108 104.144 105.812 104.581 104.75 106.519L86.375 138.394C85.25 140.269 85.8125 142.456 87.625 143.581C89.375 144.644 91.6875 144.019 92.6875 142.206Z" fill="#000000" fill-opacity="0.85"/>
 </g>
</svg>