<?xml version="1.0" encoding="UTF-8"?>
<!--Generator: Apple Native CoreSVG 175.5-->
<!DOCTYPE svg
PUBLIC "-//W3C//DTD SVG 1.1//EN"
       "http://www.w3.org/Graphics/SVG/1.1/DTD/svg11.dtd">
<svg version="1.1" xmlns="http://www.w3.org/2000/svg" xmlns:xlink="http://www.w3.org/1999/xlink" width="164.263" height="110.73">
 <g>
  <rect height="110.73" opacity="0" width="164.263" x="0" y="0"/>
  <path d="M26.5 108.084L94.125 108.084C112.188 108.084 126.25 94.3965 126.25 76.7715C126.25 59.2715 112.062 46.084 93.3125 45.834C86 32.1465 72.9375 23.7715 57.5 23.7715C36.8125 23.7715 19.5 39.709 17.4375 60.2715C7.0625 63.5215 0 72.5215 0 83.8965C0 97.959 10.625 108.084 26.5 108.084ZM26.25 98.084C15.625 98.084 10 91.959 10 84.1465C10 77.5215 13.875 71.709 23.0625 69.209C26.0625 68.459 27.1875 67.084 27.4375 63.8965C28.875 46.3965 41.875 33.7715 57.5 33.7715C69.625 33.7715 79.0625 40.459 84.875 52.084C86.25 54.7715 87.75 55.709 90.9375 55.709C107.125 55.709 116.188 65.459 116.188 77.084C116.188 88.709 106.688 98.084 94.3125 98.084ZM120.75 76.209C144.125 77.584 158.5 65.209 163.562 52.1465C165.625 47.084 162.938 42.584 158.062 42.584C154.312 42.584 151.25 44.209 144.625 44.209C128.688 44.209 120.25 35.334 120.25 20.834C120.25 13.7715 122.438 9.89647 122.438 6.39647C122.438 1.27147 118-1.29103 112.5 0.646465C99.25 4.95897 88 19.084 88 36.3965C88 41.959 89 47.334 91 52.2715L101.375 52.084C98.5625 47.459 97.1875 41.959 97.1875 36.209C97.1875 24.084 104.375 14.709 112.562 10.209L113.25 10.709C112.188 13.709 111.25 17.8965 111.25 22.709C111.25 40.709 124.375 53.0215 142.5 53.0215C146.938 53.0215 151.062 52.2715 153.938 51.334L154.375 51.7715C150.188 59.709 138.938 68.459 120.75 67.0215Z" fill="#000000" fill-opacity="0.85"/>
 </g>
</svg>