<?xml version="1.0" encoding="UTF-8"?>
<!--Generator: Apple Native CoreSVG 175.5-->
<!DOCTYPE svg
PUBLIC "-//W3C//DTD SVG 1.1//EN"
       "http://www.w3.org/Graphics/SVG/1.1/DTD/svg11.dtd">
<svg version="1.1" xmlns="http://www.w3.org/2000/svg" xmlns:xlink="http://www.w3.org/1999/xlink" width="142.688" height="143.188">
 <g>
  <rect height="143.188" opacity="0" width="142.688" x="0" y="0"/>
  <path d="M29.375 94.6875L106.938 94.6875C127.438 94.6875 142.688 79.125 142.688 59.875C142.688 39.9375 126.438 25.375 105.25 25.375C97.4375 9.9375 82.9375 0 64.875 0C41.375 0 22 18.4375 19.9375 41.625C8.625 44.9375 0 54.75 0 67.9375C0 82.75 10.75 94.6875 29.375 94.6875ZM29.25 84.6875C16.4375 84.6875 10 77.5 10 68.25C10 60.75 14.375 54 25 51.1875C28.4375 50.25 29.6875 48.625 30 45.125C31.4375 24.6875 46.75 10 64.875 10C78.9375 10 90 17.75 96.75 31.5625C98.1875 34.625 100.062 35.6875 103.75 35.6875C122.25 35.6875 132.688 46.8125 132.688 60.125C132.688 73.75 121.812 84.6875 107.562 84.6875ZM112.625 109.188L31.3125 109.188C29.125 109.188 27.375 110.875 27.375 113.125C27.375 115.375 29.125 117.062 31.3125 117.062L112.625 117.062C114.812 117.062 116.562 115.375 116.562 113.125C116.562 110.875 114.812 109.188 112.625 109.188ZM112.625 130.375L31.3125 130.375C29.125 130.375 27.375 132.062 27.375 134.312C27.375 136.562 29.125 138.312 31.3125 138.312L112.625 138.312C114.812 138.312 116.562 136.562 116.562 134.312C116.562 132.062 114.812 130.375 112.625 130.375Z" fill="#000000" fill-opacity="0.85"/>
 </g>
</svg>