<?xml version="1.0" encoding="UTF-8"?>
<!--Generator: Apple Native CoreSVG 175.5-->
<!DOCTYPE svg
PUBLIC "-//W3C//DTD SVG 1.1//EN"
       "http://www.w3.org/Graphics/SVG/1.1/DTD/svg11.dtd">
<svg version="1.1" xmlns="http://www.w3.org/2000/svg" xmlns:xlink="http://www.w3.org/1999/xlink" width="149.375" height="99.8125">
 <g>
  <rect height="99.8125" opacity="0" width="149.375" x="0" y="0"/>
  <path d="M30.625 98.9375L112 98.9375C133.062 98.9375 149.375 83 149.375 62.625C149.375 42.0625 132.688 26.5625 110 26.5625C101.688 10.0625 86.4375 0 67.875 0C43.625 0 23.125 18.8125 20.9375 43.75C8.4375 47.3125 0 57.8125 0 71.125C0 86.5 11.1875 98.9375 30.625 98.9375ZM30.5 88.875C17.6875 88.875 10.0625 81.9375 10.0625 71.4375C10.0625 62.4375 15.8125 55.9375 25.9375 53.25C29.4375 52.375 30.75 50.75 31 47.125C32.5 25.9375 48.375 10.0625 67.875 10.0625C82.9375 10.0625 94.5625 18.4375 101.562 32.8125C103.062 35.875 104.875 36.9375 108.688 36.9375C128.25 36.9375 139.25 48.75 139.25 62.875C139.25 77.4375 127.625 88.875 112.688 88.875Z" fill="#000000" fill-opacity="0.85"/>
 </g>
</svg>