<?xml version="1.0" encoding="UTF-8"?>
<!--Generator: Apple Native CoreSVG 175.5-->
<!DOCTYPE svg
PUBLIC "-//W3C//DTD SVG 1.1//EN"
       "http://www.w3.org/Graphics/SVG/1.1/DTD/svg11.dtd">
<svg version="1.1" xmlns="http://www.w3.org/2000/svg" xmlns:xlink="http://www.w3.org/1999/xlink" width="142.688" height="156.899">
 <g>
  <rect height="156.899" opacity="0" width="142.688" x="0" y="0"/>
  <path d="M29.375 101.543L106.938 101.543C127.438 101.543 142.688 85.9807 142.688 66.7307C142.688 46.7932 126.438 32.2307 105.25 32.2307C97.4375 16.7932 82.9375 6.85573 64.875 6.85573C41.375 6.85573 22 25.2932 19.9375 48.4807C8.625 51.7932 0 61.6057 0 74.7932C0 89.6057 10.75 101.543 29.375 101.543ZM29.25 91.5432C16.4375 91.5432 10 84.3557 10 75.1057C10 67.6057 14.375 60.8557 25 58.0432C28.4375 57.1057 29.6875 55.4807 30 51.9807C31.4375 31.5432 46.75 16.8557 64.875 16.8557C78.9375 16.8557 90 24.6057 96.75 38.4182C98.1875 41.4807 100.062 42.5432 103.75 42.5432C122.25 42.5432 132.688 53.6682 132.688 66.9807C132.688 80.6057 121.812 91.5432 107.562 91.5432ZM86.375 124.731L72.1875 124.731L72.0625 127.543L79.6875 112.918C80.4375 111.543 79.875 110.481 78.5 110.481L64.9375 110.481C63.125 110.481 62.5 111.106 61.9375 112.418L53.4375 131.793C52.75 133.356 53.4375 134.293 55.0625 134.293L66.625 134.293L67.4375 130.606L57.375 155.043C57.0625 155.856 57.25 156.543 57.8125 156.793C58.375 157.043 59.0625 156.856 59.75 156.168L87.375 127.856C88.6875 126.481 88.1875 124.731 86.375 124.731ZM16.3125 132.231C18.1875 133.293 20.4375 132.668 21.5 130.793L29.625 116.731C30.75 114.793 30.125 112.606 28.25 111.481C26.375 110.418 24.25 111.043 23.125 112.918L14.9375 127.168C13.875 128.981 14.375 131.168 16.3125 132.231ZM28.4375 149.731C30.3125 150.731 32.5625 150.106 33.625 148.293L41.75 134.168C42.875 132.293 42.25 130.106 40.375 128.981C38.5 127.856 36.375 128.481 35.25 130.418L27 144.606C26 146.418 26.5 148.606 28.4375 149.731ZM103.188 132.231C105.062 133.293 107.312 132.668 108.375 130.793L116.5 116.731C117.625 114.793 117 112.606 115.188 111.481C113.25 110.418 111.125 111.043 110 112.918L101.812 127.168C100.75 128.981 101.25 131.168 103.188 132.231ZM115.312 149.731C117.188 150.731 119.438 150.106 120.5 148.293L128.625 134.168C129.75 132.293 129.125 130.106 127.312 128.981C125.375 127.856 123.25 128.481 122.125 130.418L113.938 144.606C112.875 146.418 113.375 148.606 115.312 149.731Z" fill="#000000" fill-opacity="0.85"/>
 </g>
</svg>