<?xml version="1.0" encoding="UTF-8"?>
<!--Generator: Apple Native CoreSVG 175.5-->
<!DOCTYPE svg
PUBLIC "-//W3C//DTD SVG 1.1//EN"
       "http://www.w3.org/Graphics/SVG/1.1/DTD/svg11.dtd">
<svg version="1.1" xmlns="http://www.w3.org/2000/svg" xmlns:xlink="http://www.w3.org/1999/xlink" width="181.625" height="132.188">
 <g>
  <rect height="132.188" opacity="0" width="181.625" x="0" y="0"/>
  <path d="M26.5 126.312L94.125 126.312C112.188 126.312 126.25 112.625 126.25 95C126.25 77.5 112.062 64.3125 93.3125 64.0625C86 50.375 72.9375 42 57.5 42C36.8125 42 19.5 57.9375 17.4375 78.5C7.0625 81.75 0 90.75 0 102.125C0 116.188 10.625 126.312 26.5 126.312ZM26.25 116.312C15.625 116.312 10 110.188 10 102.375C10 95.75 13.875 89.9375 23.0625 87.4375C26.0625 86.6875 27.1875 85.3125 27.4375 82.125C28.875 64.625 41.875 52 57.5 52C69.625 52 79.0625 58.6875 84.875 70.3125C86.25 73 87.75 73.9375 90.9375 73.9375C107.125 73.9375 116.188 83.6875 116.188 95.3125C116.188 106.938 106.688 116.312 94.3125 116.312ZM116.938 43C129.125 43 138.688 52.5625 138.688 64.8125C138.688 74.6875 132.375 83.0625 123.375 85.9375L123.438 95.375C137.5 92.1875 147.812 79.6875 147.812 64.8125C147.812 47.625 134.125 33.8125 116.938 33.8125C99.75 33.8125 86 47.625 86 64.8125C86 65.625 86.0625 66.375 86.125 67.0625L95.5625 68C95.3125 66.9375 95.1875 65.9375 95.1875 64.8125C95.1875 52.5625 104.75 43 116.938 43ZM80.6875 35.9375C82.75 38 86.125 37.9375 88.0625 35.9375C90 33.9375 90.0625 30.6875 88.0625 28.6875L78.4375 19.0625C76.4375 17.0625 73.1875 17.0625 71.1875 19.0625C69.1875 21.0625 69.125 24.375 71.1875 26.375ZM116.938 23.9375C119.812 23.9375 122.125 21.5 122.125 18.75L122.125 5.1875C122.125 2.375 119.812 0 116.938 0C114.062 0 111.75 2.375 111.75 5.1875L111.75 18.75C111.75 21.5 114.062 23.9375 116.938 23.9375ZM145.812 35.9375C147.75 37.9375 151.125 38 153.188 35.9375L162.75 26.375C164.75 24.375 164.75 21.0625 162.75 19.0625C160.75 17.0625 157.5 17.0625 155.5 19.0625L145.812 28.6875C143.812 30.6875 143.875 33.9375 145.812 35.9375ZM162.938 70L176.5 70C179.312 70 181.625 67.6875 181.625 64.8125C181.625 62 179.312 59.625 176.5 59.625L162.938 59.625C160.188 59.625 157.75 62 157.75 64.8125C157.75 67.6875 160.188 70 162.938 70ZM155.5 110.688C157.5 112.688 160.75 112.625 162.75 110.625C164.75 108.625 164.75 105.312 162.75 103.375L153.062 93.8125C151.062 91.875 147.812 91.8125 145.812 93.8125C143.812 95.8125 143.812 99.125 145.812 101.125Z" fill="#000000" fill-opacity="0.85"/>
 </g>
</svg>