<?xml version="1.0" encoding="UTF-8"?>
<!--Generator: Apple Native CoreSVG 175.5-->
<!DOCTYPE svg
PUBLIC "-//W3C//DTD SVG 1.1//EN"
       "http://www.w3.org/Graphics/SVG/1.1/DTD/svg11.dtd">
<svg version="1.1" xmlns="http://www.w3.org/2000/svg" xmlns:xlink="http://www.w3.org/1999/xlink" width="142.688" height="147.562">
 <g>
  <rect height="147.562" opacity="0" width="142.688" x="0" y="0"/>
  <path d="M29.375 96.875L106.938 96.875C127.438 96.875 142.688 81.3125 142.688 62.0625C142.688 42.125 126.438 27.5625 105.25 27.5625C97.4375 12.125 82.9375 2.1875 64.875 2.1875C41.375 2.1875 22 20.625 19.9375 43.8125C8.625 47.125 0 56.9375 0 70.125C0 84.9375 10.75 96.875 29.375 96.875ZM29.25 86.875C16.4375 86.875 10 79.6875 10 70.4375C10 62.9375 14.375 56.1875 25 53.375C28.4375 52.4375 29.6875 50.8125 30 47.3125C31.4375 26.875 46.75 12.1875 64.875 12.1875C78.9375 12.1875 90 19.9375 96.75 33.75C98.1875 36.8125 100.062 37.875 103.75 37.875C122.25 37.875 132.688 49 132.688 62.3125C132.688 75.9375 121.812 86.875 107.562 86.875ZM37.4375 119.375L41.625 112C42.75 110.125 42.1875 107.875 40.3125 106.75C38.4375 105.688 36.25 106.375 35.125 108.188L30.875 115.75C29.875 117.5 30.3125 119.688 32.25 120.812C34.125 121.875 36.375 121.25 37.4375 119.375ZM64.6875 128.938L74.4375 112.062C75.5 110.125 74.9375 107.938 73.125 106.875C71.1875 105.75 69 106.375 67.9375 108.312L58.125 125.312C57.0625 127.125 57.625 129.312 59.5625 130.375C61.375 131.438 63.6875 130.812 64.6875 128.938ZM102.938 119.625L107.125 112.25C108.25 110.375 107.688 108.125 105.812 107C103.938 105.938 101.75 106.625 100.625 108.438L96.375 116C95.375 117.75 95.8125 119.938 97.75 121.062C99.625 122.125 101.875 121.438 102.938 119.625ZM26.375 138C30.0625 138 33.125 134.875 33.125 131.125C33.125 127.5 30.0625 124.438 26.375 124.438C22.625 124.438 19.5625 127.5 19.5625 131.125C19.5625 134.875 22.625 138 26.375 138ZM53.625 147.562C57.3125 147.562 60.4375 144.438 60.4375 140.688C60.4375 137.062 57.375 134 53.625 134C49.9375 134 46.875 137.062 46.875 140.688C46.875 144.438 49.9375 147.562 53.625 147.562ZM91.875 138.25C95.5625 138.25 98.625 135.125 98.625 131.375C98.625 127.75 95.5625 124.625 91.875 124.625C88.125 124.625 85.0625 127.75 85.0625 131.375C85.0625 135.125 88.125 138.25 91.875 138.25Z" fill="#000000" fill-opacity="0.85"/>
 </g>
</svg>