<?xml version="1.0" encoding="UTF-8"?>
<!--Generator: Apple Native CoreSVG 175.5-->
<!DOCTYPE svg
PUBLIC "-//W3C//DTD SVG 1.1//EN"
       "http://www.w3.org/Graphics/SVG/1.1/DTD/svg11.dtd">
<svg version="1.1" xmlns="http://www.w3.org/2000/svg" xmlns:xlink="http://www.w3.org/1999/xlink" width="181.625" height="175.688">
 <g>
  <rect height="175.688" opacity="0" width="181.625" x="0" y="0"/>
  <path d="M26.5 126.312L94.125 126.312C112.188 126.312 126.25 112.625 126.25 95C126.25 77.5 112.062 64.3125 93.3125 64.0625C86 50.375 72.9375 41.9375 57.5 41.9375C36.8125 41.9375 19.5 57.9375 17.4375 78.4375C7.0625 81.75 0 90.75 0 102.125C0 116.188 10.625 126.312 26.5 126.312ZM26.25 116.312C15.625 116.312 10 110.188 10 102.375C10 95.75 13.875 89.875 23.0625 87.4375C26.0625 86.625 27.1875 85.25 27.4375 82.125C28.875 64.625 41.875 52 57.5 52C69.625 52 79.0625 58.625 84.875 70.3125C86.25 73 87.75 73.9375 90.9375 73.9375C107.125 73.9375 116.188 83.625 116.188 95.3125C116.188 106.938 106.688 116.312 94.3125 116.312ZM116.938 33.8125C99.75 33.8125 86 47.625 86 64.8125C86 65.5625 86.0625 66.375 86.125 67.0625L95.5625 68C95.3125 66.9375 95.1875 65.875 95.1875 64.8125C95.1875 52.5625 104.75 43 116.938 43C129.125 43 138.688 52.5625 138.688 64.8125C138.688 74.6875 132.375 83 123.375 85.875L123.438 95.3125C137.5 92.125 147.812 79.625 147.812 64.8125C147.812 47.625 134.125 33.8125 116.938 33.8125ZM80.6875 35.9375C82.75 38 86.125 37.9375 88.0625 35.9375C90 33.9375 90.0625 30.6875 88.0625 28.6875L78.4375 19C76.4375 17 73.1875 17 71.1875 19C69.1875 21 69.125 24.3125 71.1875 26.375ZM116.938 23.875C119.812 23.875 122.125 21.5 122.125 18.6875L122.125 5.1875C122.125 2.3125 119.812 0 116.938 0C114.062 0 111.75 2.3125 111.75 5.1875L111.75 18.6875C111.75 21.5 114.062 23.875 116.938 23.875ZM145.812 35.9375C147.75 37.9375 151.125 38 153.188 35.9375L162.75 26.375C164.75 24.3125 164.75 21 162.75 19C160.75 17 157.5 17 155.5 19L145.812 28.6875C143.812 30.6875 143.875 33.9375 145.812 35.9375ZM162.938 70L176.5 70C179.312 70 181.625 67.6875 181.625 64.8125C181.625 61.9375 179.312 59.625 176.5 59.625L162.938 59.625C160.188 59.625 157.75 61.9375 157.75 64.8125C157.75 67.6875 160.188 70 162.938 70ZM155.5 110.688C157.5 112.688 160.75 112.625 162.75 110.625C164.75 108.625 164.75 105.312 162.75 103.375L153.062 93.75C151.062 91.8125 147.812 91.75 145.812 93.75C143.812 95.75 143.812 99.0625 145.812 101.062ZM25.4375 155.625L33.5625 141.5C34.6875 139.625 34.125 137.438 32.25 136.312C30.3125 135.25 28.1875 135.812 27.0625 137.75L18.875 152C17.8125 153.75 18.375 155.938 20.25 157.062C22.125 158.125 24.375 157.438 25.4375 155.625ZM45 173.188L53.125 159.125C54.25 157.188 53.625 155 51.8125 153.938C49.875 152.812 47.75 153.438 46.625 155.375L38.4375 169.562C37.375 171.375 37.9375 173.562 39.8125 174.625C41.6875 175.688 43.9375 175.062 45 173.188ZM75.1875 155.562L83.3125 141.438C84.4375 139.562 83.8125 137.375 81.9375 136.25C80.0625 135.188 77.9375 135.75 76.8125 137.688L68.625 151.938C67.5625 153.688 68.0625 155.875 70 157C71.875 158.062 74.125 157.375 75.1875 155.562ZM94.6875 173.125L102.875 159.062C104 157.125 103.375 154.938 101.5 153.875C99.625 152.75 97.5 153.375 96.3125 155.312L88.125 169.5C87.0625 171.312 87.625 173.5 89.5625 174.562C91.375 175.625 93.6875 175 94.6875 173.125Z" fill="#000000" fill-opacity="0.85"/>
 </g>
</svg>