<?xml version="1.0" encoding="UTF-8"?>
<!--Generator: Apple Native CoreSVG 175.5-->
<!DOCTYPE svg
PUBLIC "-//W3C//DTD SVG 1.1//EN"
       "http://www.w3.org/Graphics/SVG/1.1/DTD/svg11.dtd">
<svg version="1.1" xmlns="http://www.w3.org/2000/svg" xmlns:xlink="http://www.w3.org/1999/xlink" width="142.688" height="144.1">
 <g>
  <rect height="144.1" opacity="0" width="142.688" x="0" y="0"/>
  <path d="M29.375 95.1435L106.938 95.1435C127.438 95.1435 142.688 79.581 142.688 60.331C142.688 40.3935 126.438 25.831 105.25 25.831C97.4375 10.3935 82.9375 0.456042 64.875 0.456042C41.375 0.456042 22 18.8935 19.9375 42.081C8.625 45.3935 0 55.206 0 68.3935C0 83.206 10.75 95.1435 29.375 95.1435ZM29.25 85.1435C16.4375 85.1435 10 77.956 10 68.706C10 61.206 14.375 54.456 25 51.6435C28.4375 50.706 29.6875 49.081 30 45.581C31.4375 25.1435 46.75 10.456 64.875 10.456C78.9375 10.456 90 18.206 96.75 32.0185C98.1875 35.081 100.062 36.1435 103.75 36.1435C122.25 36.1435 132.688 47.2685 132.688 60.581C132.688 74.206 121.812 85.1435 107.562 85.1435ZM31 124.394L39.125 110.269C40.3125 108.394 39.6875 106.206 37.8125 105.081C35.9375 104.019 33.8125 104.581 32.625 106.519L24.4375 120.769C23.375 122.519 23.9375 124.706 25.875 125.831C27.6875 126.894 29.9375 126.206 31 124.394ZM45.5625 142.206L64 110.206C65.0625 108.331 64.5625 106.206 62.75 105.144C60.9375 104.019 58.625 104.581 57.5625 106.519L39.25 138.394C38.1875 140.269 38.6875 142.456 40.5625 143.581C42.375 144.644 44.5 144.019 45.5625 142.206ZM80.75 124.331L88.875 110.206C90 108.331 89.375 106.144 87.5 105.019C85.625 103.956 83.5 104.519 82.375 106.456L74.1875 120.706C73.125 122.456 73.625 124.644 75.5625 125.769C77.4375 126.831 79.6875 126.144 80.75 124.331ZM95.25 142.144L113.75 110.144C114.812 108.269 114.25 106.144 112.438 105.081C110.688 103.956 108.438 104.519 107.312 106.456L88.9375 138.331C87.875 140.206 88.4375 142.394 90.25 143.519C92.0625 144.581 94.1875 144.019 95.25 142.144Z" fill="#000000" fill-opacity="0.85"/>
 </g>
</svg>