<?xml version="1.0" encoding="UTF-8"?>
<!--Generator: Apple Native CoreSVG 175.5-->
<!DOCTYPE svg
PUBLIC "-//W3C//DTD SVG 1.1//EN"
       "http://www.w3.org/Graphics/SVG/1.1/DTD/svg11.dtd">
<svg version="1.1" xmlns="http://www.w3.org/2000/svg" xmlns:xlink="http://www.w3.org/1999/xlink" width="142.688" height="143.72">
 <g>
  <rect height="143.72" opacity="0" width="142.688" x="0" y="0"/>
  <path d="M29.375 94.9538L106.938 94.9538C127.438 94.9538 142.688 79.3913 142.688 60.1413C142.688 40.2038 126.438 25.6413 105.25 25.6413C97.4375 10.2038 82.9375 0.266298 64.875 0.266298C41.375 0.266298 22 18.7038 19.9375 41.8913C8.625 45.2038 0 55.0163 0 68.2038C0 83.0163 10.75 94.9538 29.375 94.9538ZM29.25 84.9538C16.4375 84.9538 10 77.7663 10 68.5163C10 61.0163 14.375 54.2663 25 51.4538C28.4375 50.5163 29.6875 48.8913 30 45.3913C31.4375 24.9538 46.75 10.2663 64.875 10.2663C78.9375 10.2663 90 18.0163 96.75 31.8288C98.1875 34.8913 100.062 35.9538 103.75 35.9538C122.25 35.9538 132.688 47.0788 132.688 60.3913C132.688 74.0163 121.812 84.9538 107.562 84.9538ZM31 124.204L39.125 110.079C40.3125 108.204 39.6875 106.016 37.8125 104.891C35.9375 103.829 33.8125 104.391 32.625 106.329L24.4375 120.579C23.375 122.329 23.9375 124.516 25.875 125.641C27.6875 126.704 29.9375 126.016 31 124.204ZM50.5625 141.766L58.6875 127.704C59.8125 125.766 59.25 123.579 57.375 122.516C55.4375 121.391 53.3125 122.016 52.1875 123.954L44 138.141C42.9375 139.954 43.5 142.141 45.375 143.204C47.25 144.266 49.5 143.641 50.5625 141.766ZM80.75 124.141L88.875 110.016C90 108.141 89.375 105.954 87.5 104.829C85.625 103.766 83.5 104.329 82.375 106.266L74.1875 120.516C73.125 122.266 73.625 124.454 75.5625 125.579C77.4375 126.641 79.6875 125.954 80.75 124.141ZM100.312 141.704L108.438 127.641C109.562 125.704 108.938 123.516 107.062 122.454C105.188 121.329 103.062 121.954 101.938 123.891L93.6875 138.079C92.6875 139.891 93.1875 142.079 95.125 143.141C97 144.204 99.25 143.579 100.312 141.704Z" fill="#000000" fill-opacity="0.85"/>
 </g>
</svg>