<?xml version="1.0" encoding="UTF-8"?>
<!--Generator: Apple Native CoreSVG 175.5-->
<!DOCTYPE svg
PUBLIC "-//W3C//DTD SVG 1.1//EN"
       "http://www.w3.org/Graphics/SVG/1.1/DTD/svg11.dtd">
<svg version="1.1" xmlns="http://www.w3.org/2000/svg" xmlns:xlink="http://www.w3.org/1999/xlink" width="142.688" height="163.938">
 <g>
  <rect height="163.938" opacity="0" width="142.688" x="0" y="0"/>
  <path d="M29.375 105.062L106.938 105.062C127.438 105.062 142.688 89.5 142.688 70.25C142.688 50.3125 126.438 35.75 105.25 35.75C97.4375 20.3125 82.9375 10.375 64.875 10.375C41.375 10.375 22 28.8125 19.9375 52C8.625 55.3125 0 65.125 0 78.3125C0 93.125 10.75 105.062 29.375 105.062ZM29.25 95.0625C16.4375 95.0625 10 87.875 10 78.625C10 71.125 14.375 64.375 25 61.5625C28.4375 60.625 29.6875 59 30 55.5C31.4375 35.0625 46.75 20.375 64.875 20.375C78.9375 20.375 90 28.125 96.75 41.9375C98.1875 45 100.062 46.0625 103.75 46.0625C122.25 46.0625 132.688 57.1875 132.688 70.5C132.688 84.125 121.812 95.0625 107.562 95.0625ZM37.4375 127.562L41.625 120.188C42.75 118.312 42.1875 116.062 40.3125 114.938C38.4375 113.875 36.25 114.562 35.125 116.375L30.875 123.938C29.875 125.688 30.3125 127.875 32.25 129C34.125 130.062 36.375 129.438 37.4375 127.562ZM64.6875 137.125L74.4375 120.25C75.5 118.312 74.9375 116.125 73.125 115.062C71.1875 113.938 69 114.562 67.9375 116.5L58.125 133.5C57.0625 135.312 57.625 137.5 59.5625 138.562C61.375 139.625 63.6875 139 64.6875 137.125ZM102.938 127.812L107.125 120.438C108.25 118.562 107.688 116.312 105.812 115.188C103.938 114.125 101.75 114.812 100.625 116.625L96.375 124.188C95.375 125.938 95.8125 128.125 97.75 129.25C99.625 130.312 101.875 129.625 102.938 127.812ZM25.875 154.375C27 154.375 27.8125 153.312 27.75 152.188L27.3125 146.188L32.3125 149.562C33.1875 150.188 34.625 149.938 35.1875 149C35.8125 148.062 35.4375 146.625 34.25 146.062L28.875 143.438L34.3125 140.75C35.4375 140.188 35.75 138.875 35.25 137.875C34.75 136.875 33.1875 136.688 32.3125 137.312L27.3125 140.75L27.8125 134.75C27.9375 133.562 27 132.562 25.875 132.562C24.5625 132.562 23.75 133.562 23.8125 134.75L24.25 140.75L19.1875 137.312C18.3125 136.688 17 136.812 16.375 137.875C15.8125 138.875 16.0625 140.188 17.25 140.75L22.625 143.438L17.25 146.062C16.0625 146.625 15.75 148 16.3125 149C16.875 150.062 18.3125 150.25 19.1875 149.625L24.25 146.25L23.875 152.188C23.8125 153.312 24.5625 154.375 25.875 154.375ZM55.6875 163.938C56.875 163.938 57.625 162.875 57.5625 161.75L57.1875 155.812L62.125 159.125C63.0625 159.75 64.4375 159.5 65.0625 158.562C65.6875 157.625 65.3125 156.188 64.125 155.625L58.75 153.062L64.1875 150.375C65.3125 149.812 65.625 148.438 65.125 147.438C64.5625 146.438 63.0625 146.25 62.125 146.875L57.1875 150.375L57.625 144.312C57.75 143.125 56.875 142.125 55.6875 142.125C54.375 142.125 53.625 143.125 53.6875 144.312L54.0625 150.375L49.0625 146.875C48.125 146.25 46.8125 146.375 46.1875 147.438C45.625 148.438 45.875 149.75 47.0625 150.375L52.5 153.062L47.0625 155.688C45.875 156.25 45.5625 157.562 46.125 158.562C46.6875 159.625 48.125 159.812 49.0625 159.188L54.0625 155.812L53.75 161.75C53.6875 162.875 54.375 163.938 55.6875 163.938ZM91.375 154.625C92.5 154.625 93.3125 153.562 93.25 152.375L92.8125 146.438L97.8125 149.812C98.6875 150.438 100.062 150.188 100.688 149.25C101.312 148.312 100.938 146.875 99.75 146.312L94.375 143.688L99.8125 141C100.938 140.438 101.25 139.062 100.75 138.125C100.188 137.125 98.6875 136.938 97.8125 137.562L92.8125 141L93.3125 135C93.4375 133.75 92.5 132.75 91.375 132.75C90.0625 132.75 89.25 133.75 89.3125 135L89.75 141L84.6875 137.562C83.8125 136.938 82.5 137.062 81.875 138.125C81.3125 139.062 81.5625 140.438 82.75 141L88.125 143.688L82.75 146.312C81.5625 146.875 81.25 148.25 81.8125 149.25C82.375 150.25 83.8125 150.438 84.6875 149.812L89.75 146.5L89.375 152.375C89.3125 153.562 90.0625 154.625 91.375 154.625Z" fill="#000000" fill-opacity="0.85"/>
 </g>
</svg>