<?xml version="1.0" encoding="UTF-8"?>
<!--Generator: Apple Native CoreSVG 175.5-->
<!DOCTYPE svg
PUBLIC "-//W3C//DTD SVG 1.1//EN"
       "http://www.w3.org/Graphics/SVG/1.1/DTD/svg11.dtd">
<svg version="1.1" xmlns="http://www.w3.org/2000/svg" xmlns:xlink="http://www.w3.org/1999/xlink" width="164.263" height="164.899">
 <g>
  <rect height="164.899" opacity="0" width="164.263" x="0" y="0"/>
  <path d="M26.5 112.356L94.125 112.356C112.188 112.356 126.25 98.7307 126.25 81.1057C126.25 63.5432 112.062 50.4182 93.3125 50.1057C86 36.4182 72.9375 28.0432 57.5 28.0432C36.8125 28.0432 19.5 44.0432 17.4375 64.5432C7.0625 67.7932 0 76.7932 0 88.1682C0 102.293 10.625 112.356 26.5 112.356ZM26.25 102.356C15.625 102.356 10 96.2307 10 88.4182C10 81.8557 13.875 75.9807 23.0625 73.5432C26.0625 72.7307 27.1875 71.3557 27.4375 68.2307C28.875 50.6682 41.875 38.0432 57.5 38.0432C69.625 38.0432 79.0625 44.7307 84.875 56.4182C86.25 59.1057 87.75 59.9807 90.9375 59.9807C107.125 59.9807 116.188 69.7307 116.188 81.3557C116.188 93.0432 106.688 102.356 94.3125 102.356ZM120.75 80.4807C144.125 81.8557 158.5 69.4807 163.562 56.4182C165.625 51.4182 162.938 46.8557 158.062 46.8557C154.312 46.8557 151.25 48.4807 144.625 48.4807C128.688 48.4807 120.25 39.6057 120.25 25.1682C120.25 18.0432 122.438 14.2307 122.438 10.7307C122.438 5.54323 118 3.04323 112.5 4.91823C99.25 9.29323 88 23.4182 88 40.6682C88 46.2307 89 51.6057 91 56.5432L101.375 56.3557C98.5625 51.7307 97.1875 46.2307 97.1875 40.4807C97.1875 28.4182 104.375 18.9807 112.562 14.4807L113.25 14.9807C112.188 17.9807 111.25 22.1682 111.25 27.0432C111.25 44.9807 124.375 57.3557 142.5 57.3557C146.938 57.3557 151.062 56.5432 153.938 55.6057L154.375 56.0432C150.188 63.9807 138.938 72.7307 120.75 71.3557ZM78.25 134.481L64.5625 134.481L64.4375 137.106L71.5625 123.606C72.25 122.231 71.6875 121.231 70.3125 121.231L57.25 121.231C55.5625 121.231 55 121.918 54.4375 123.106L46.4375 141.293C45.8125 142.793 46.4375 143.731 48.0625 143.731L59.25 143.731L60 140.106L50.5 163.106C50.125 163.918 50.3125 164.606 50.875 164.793C51.4375 165.043 52.125 164.856 52.75 164.168L79.1875 137.481C80.4375 136.168 80 134.481 78.25 134.481Z" fill="#000000" fill-opacity="0.85"/>
 </g>
</svg>