<?xml version="1.0" encoding="UTF-8"?>
<!--Generator: Apple Native CoreSVG 175.5-->
<!DOCTYPE svg
PUBLIC "-//W3C//DTD SVG 1.1//EN"
       "http://www.w3.org/Graphics/SVG/1.1/DTD/svg11.dtd">
<svg version="1.1" xmlns="http://www.w3.org/2000/svg" xmlns:xlink="http://www.w3.org/1999/xlink" width="164.263" height="157.595">
 <g>
  <rect height="157.595" opacity="0" width="164.263" x="0" y="0"/>
  <path d="M26.5 108.704L94.125 108.704C112.188 108.704 126.25 95.0788 126.25 77.4538C126.25 59.8913 112.062 46.7663 93.3125 46.4538C86 32.7663 72.9375 24.3913 57.5 24.3913C36.8125 24.3913 19.5 40.3913 17.4375 60.8913C7.0625 64.1413 0 73.1413 0 84.5163C0 98.6413 10.625 108.704 26.5 108.704ZM26.25 98.7038C15.625 98.7038 10 92.5788 10 84.7663C10 78.2038 13.875 72.3288 23.0625 69.8913C26.0625 69.0788 27.1875 67.7038 27.4375 64.5788C28.875 47.0163 41.875 34.3913 57.5 34.3913C69.625 34.3913 79.0625 41.0788 84.875 52.7663C86.25 55.4538 87.75 56.3288 90.9375 56.3288C107.125 56.3288 116.188 66.0788 116.188 77.7038C116.188 89.3913 106.688 98.7038 94.3125 98.7038ZM120.75 76.8288C144.125 78.2038 158.5 65.8288 163.562 52.7663C165.625 47.7663 162.938 43.2038 158.062 43.2038C154.312 43.2038 151.25 44.8288 144.625 44.8288C128.688 44.8288 120.25 35.9538 120.25 21.5163C120.25 14.3913 122.438 10.5788 122.438 7.0788C122.438 1.8913 118-0.608702 112.5 1.2663C99.25 5.6413 88 19.7663 88 37.0163C88 42.5788 89 47.9538 91 52.8913L101.375 52.7038C98.5625 48.0788 97.1875 42.5788 97.1875 36.8288C97.1875 24.7663 104.375 15.3288 112.562 10.8288L113.25 11.3288C112.188 14.3288 111.25 18.5163 111.25 23.3913C111.25 41.3288 124.375 53.7038 142.5 53.7038C146.938 53.7038 151.062 52.8913 153.938 51.9538L154.375 52.3913C150.188 60.3288 138.938 69.0788 120.75 67.7038ZM25.4375 138.016L33.5625 123.954C34.6875 122.016 34.125 119.829 32.25 118.766C30.3125 117.641 28.1875 118.266 27.0625 120.204L18.875 134.391C17.8125 136.204 18.375 138.391 20.25 139.516C22.125 140.516 24.375 139.891 25.4375 138.016ZM45 155.641L53.125 141.516C54.25 139.641 53.625 137.454 51.8125 136.329C49.875 135.266 47.75 135.891 46.625 137.766L38.4375 152.016C37.375 153.766 37.9375 155.954 39.8125 157.079C41.6875 158.141 43.9375 157.516 45 155.641ZM75.1875 137.954L83.3125 123.891C84.4375 121.954 83.8125 119.766 81.9375 118.704C80.0625 117.579 77.9375 118.204 76.8125 120.141L68.625 134.329C67.5625 136.141 68.0625 138.329 70 139.454C71.875 140.454 74.125 139.829 75.1875 137.954ZM94.6875 155.579L102.875 141.454C104 139.579 103.375 137.391 101.5 136.266C99.625 135.204 97.5 135.829 96.3125 137.704L88.125 151.954C87.0625 153.704 87.625 155.891 89.5625 157.016C91.375 158.079 93.6875 157.454 94.6875 155.579Z" fill="#000000" fill-opacity="0.85"/>
 </g>
</svg>