<?xml version="1.0" encoding="UTF-8"?>
<!--Generator: Apple Native CoreSVG 175.5-->
<!DOCTYPE svg
PUBLIC "-//W3C//DTD SVG 1.1//EN"
       "http://www.w3.org/Graphics/SVG/1.1/DTD/svg11.dtd">
<svg version="1.1" xmlns="http://www.w3.org/2000/svg" xmlns:xlink="http://www.w3.org/1999/xlink" width="134.491" height="117.812">
 <g>
  <rect height="117.812" opacity="0" width="134.491" x="0" y="0"/>
  <path d="M107.428 117.812C122.428 117.812 134.491 106.062 134.491 91.375C134.491 83.25 130.428 75.3125 126.991 68.875L113.053 42.9375C111.553 40.125 110.178 38.9375 107.428 38.9375C104.616 38.9375 103.241 40.125 101.741 42.9375L87.9284 68.875C84.4909 75.3125 80.4284 83.25 80.4284 91.375C80.4284 106.062 92.4284 117.812 107.428 117.812ZM107.428 109.562C96.9909 109.562 88.6784 101.562 88.6784 91.375C88.6784 85.1875 91.8659 79.1875 95.2409 72.75L106.866 51.1875C107.178 50.5625 107.741 50.5625 108.116 51.1875L119.553 72.75C122.991 79.1875 126.241 85.1875 126.241 91.375C126.241 101.562 117.866 109.562 107.428 109.562ZM25.3659 42.1875C53.1784 42.1875 68.2409 18.625 94.4284 18.625C100.553 18.625 105.991 20 112.366 23.625C115.053 25.125 117.553 24.125 118.866 22.25C120.428 20 120.241 16.625 116.741 14.5625C109.678 10.5 102.428 8.5625 94.4284 8.5625C66.0534 8.5625 51.1159 32.125 25.3659 32.125C19.1784 32.125 13.7409 30.75 7.36585 27.125C4.67835 25.625 2.17835 26.625 0.865851 28.5625C-0.571649 30.8125-0.446649 34.1875 2.99085 36.1875C10.0534 40.25 17.3034 42.1875 25.3659 42.1875ZM25.4284 75.75C50.1784 75.75 64.9284 56.8125 86.6159 53.0625C88.5534 49.375 90.5534 45.8125 92.4909 42.125C64.7409 43.4375 50.6784 65.6875 25.4284 65.6875C19.2409 65.6875 13.8034 64.25 7.42835 60.625C4.80335 59.125 2.24085 60.125 0.990851 62.0625C-0.509149 64.3125-0.384149 67.6875 3.05335 69.6875C10.1159 73.75 17.4284 75.75 25.4284 75.75ZM25.3659 109.25C44.2409 109.25 57.3659 98.125 72.1784 91.3125C71.8659 88.5625 72.6159 83.625 73.7409 79.9375C57.1159 86.625 44.1159 99.1875 25.3659 99.1875C19.1784 99.1875 13.7409 97.8125 7.36585 94.125C4.67835 92.625 2.17835 93.625 0.865851 95.5625C-0.571649 97.8125-0.446649 101.25 2.99085 103.188C10.0534 107.312 17.3034 109.25 25.3659 109.25Z" fill="#000000" fill-opacity="0.85"/>
 </g>
</svg>