<?xml version="1.0" encoding="UTF-8"?>
<!--Generator: Apple Native CoreSVG 175.5-->
<!DOCTYPE svg
PUBLIC "-//W3C//DTD SVG 1.1//EN"
       "http://www.w3.org/Graphics/SVG/1.1/DTD/svg11.dtd">
<svg version="1.1" xmlns="http://www.w3.org/2000/svg" xmlns:xlink="http://www.w3.org/1999/xlink" width="125.062" height="139.938">
 <g>
  <rect height="139.938" opacity="0" width="125.062" x="0" y="0"/>
  <path d="M54.625 129.812C77.5 129.812 96.0625 118.312 104.438 98.6875C105.562 96.0625 105.188 93.9375 104 92.75C102.938 91.625 101 91.4375 98.8125 92.25C94.0625 94.125 88.375 95.25 81.1875 95.25C53.1875 95.25 35.25 77.75 35.25 50.375C35.25 42.8125 36.6875 35.25 38.625 31.3125C39.8125 28.875 39.75 26.6875 38.625 25.4375C37.4375 24.0625 35.3125 23.625 32.4375 24.75C13.25 32.5625 0 52.625 0 75.9375C0 106.375 22.4375 129.812 54.625 129.812ZM54.75 120.25C28.125 120.25 9.5625 100.812 9.5625 75.1875C9.5625 59.5 16.875 45.5625 28.5 36.6875C26.9375 40.8125 26.0625 47 26.0625 53C26.0625 83.8125 47.3125 104.438 78.8125 104.438C84.375 104.438 89.5 103.688 92.1875 102.812C84.375 113.625 70.4375 120.25 54.75 120.25ZM101 72.6875C102.188 72.6875 103 71.875 103.125 70.625C105.188 53.9375 106 53.5 122.938 50.75C124.25 50.5625 125.062 49.875 125.062 48.6875C125.062 47.5 124.25 46.75 123.188 46.5625C106.125 43.3125 105.188 43.375 103.125 26.6875C103 25.4375 102.188 24.625 101 24.625C99.875 24.625 99.0625 25.4375 98.875 26.625C96.75 43.5625 96.125 44.125 78.8125 46.5625C77.75 46.6875 76.9375 47.5 76.9375 48.6875C76.9375 49.8125 77.75 50.5625 78.8125 50.75C96.125 54.0625 96.6875 54.0625 98.875 70.75C99.0625 71.875 99.875 72.6875 101 72.6875ZM71.125 30.375C71.875 30.375 72.25 29.9375 72.375 29.25C74.3125 18.8125 74.25 18.5625 85.125 16.5C85.8125 16.375 86.3125 15.9375 86.3125 15.1875C86.3125 14.4375 85.8125 14 85.125 13.875C74.25 11.6875 74.625 11.4375 72.375 1.125C72.25 0.4375 71.875 0 71.125 0C70.375 0 69.9375 0.4375 69.8125 1.125C67.625 11.4375 68 11.6875 57.125 13.875C56.375 14 55.9375 14.4375 55.9375 15.1875C55.9375 15.9375 56.375 16.375 57.125 16.5C68 18.6875 67.875 18.8125 69.8125 29.25C69.9375 29.9375 70.375 30.375 71.125 30.375Z" fill="#000000" fill-opacity="0.85"/>
 </g>
</svg>