<?xml version="1.0" encoding="UTF-8"?>
<!--Generator: Apple Native CoreSVG 175.5-->
<!DOCTYPE svg
PUBLIC "-//W3C//DTD SVG 1.1//EN"
       "http://www.w3.org/Graphics/SVG/1.1/DTD/svg11.dtd">
<svg version="1.1" xmlns="http://www.w3.org/2000/svg" xmlns:xlink="http://www.w3.org/1999/xlink" width="144.25" height="145.312">
 <g>
  <rect height="145.312" opacity="0" width="144.25" x="0" y="0"/>
  <path d="M13.375 97.25L140.312 97.25C142.5 97.25 144.25 95.5625 144.25 93.3125C144.25 91.0625 142.5 89.375 140.312 89.375L13.375 89.375C11.125 89.375 9.4375 91.0625 9.4375 93.3125C9.4375 95.5625 11.125 97.25 13.375 97.25ZM3.9375 121.312L130.875 121.312C133.062 121.312 134.812 119.562 134.812 117.312C134.812 115.062 133.062 113.375 130.875 113.375L3.9375 113.375C1.75 113.375 0 115.062 0 117.312C0 119.562 1.75 121.312 3.9375 121.312ZM13.375 145.312L140.312 145.312C142.5 145.312 144.25 143.625 144.25 141.375C144.25 139.062 142.5 137.375 140.312 137.375L13.375 137.375C11.125 137.375 9.4375 139.062 9.4375 141.375C9.4375 143.625 11.125 145.312 13.375 145.312ZM42.4375 90.125L62.125 90.125C45.4375 85.3125 35 70.75 35 52.8125C35 39.875 40.6875 28.4375 49.875 20.6875C48.875 24.25 48.375 28.75 48.375 33.4375C48.375 60.625 67.125 78.875 94.9375 78.875C98.5 78.875 102.25 78.4375 105.125 77.875C100.5 83.5 93.8125 87.8125 85.8125 90.125L105.188 90.1875C110.625 85.8125 114.938 80.1875 117.75 73.625C118.812 71.1875 118.562 69.0625 117.312 67.75C116.188 66.625 114.312 66.4375 112.125 67.25C107.938 68.875 103 69.6875 96.9375 69.6875C72.8125 69.6875 57.4375 54.75 57.4375 31.1875C57.4375 24.9375 58.5625 18.25 60.3125 14.75C61.4375 12.5625 61.4375 10.3125 60.1875 9C58.875 7.625 56.75 7.25 54.1875 8.3125C37.125 15.25 25.5625 33.0625 25.5625 53.5C25.5625 68.375 31.625 81.625 42.4375 90.125Z" fill="#000000" fill-opacity="0.85"/>
 </g>
</svg>