<?xml version="1.0" encoding="UTF-8"?>
<!--Generator: Apple Native CoreSVG 175.5-->
<!DOCTYPE svg
PUBLIC "-//W3C//DTD SVG 1.1//EN"
       "http://www.w3.org/Graphics/SVG/1.1/DTD/svg11.dtd">
<svg version="1.1" xmlns="http://www.w3.org/2000/svg" xmlns:xlink="http://www.w3.org/1999/xlink" width="125.75" height="126.688">
 <g>
  <rect height="126.688" opacity="0" width="125.75" x="0" y="0"/>
  <path d="M98.1875 84.875C63.75 84.875 42.375 64.125 42.375 30.8125C42.375 21.3125 43.9375 12.9375 46.25 8.4375C47.1875 6.625 47.375 5.75 47.375 4.5C47.375 2.4375 45.4375 0 42.8125 0C42.3125 0 41.125 0.1875 39.375 0.875C16.25 10.25 0 34.625 0 60.875C0 98.8125 27.5625 126.438 65.5 126.438C92.6875 126.438 114.75 112.188 124.875 88.8125C125.625 87.1875 125.75 85.8125 125.75 85.125C125.75 82.5625 123.562 80.8125 121.625 80.8125C120.625 80.8125 119.875 80.875 118.375 81.4375C113.312 83.5 105.688 84.875 98.1875 84.875ZM9.8125 60.4375C9.8125 41 19.9375 22.5 36.125 12.3125C34.125 18.125 33.0625 24.5625 33.0625 31.6875C33.0625 70.75 56.875 94 96.75 94C103.188 94 108.625 93.25 113.812 91.4375C104.312 107.125 86 116.688 65.875 116.688C33.4375 116.688 9.8125 93.0625 9.8125 60.4375Z" fill="#000000" fill-opacity="0.85"/>
 </g>
</svg>