<?xml version="1.0" encoding="UTF-8"?>
<!--Generator: Apple Native CoreSVG 175.5-->
<!DOCTYPE svg
PUBLIC "-//W3C//DTD SVG 1.1//EN"
       "http://www.w3.org/Graphics/SVG/1.1/DTD/svg11.dtd">
<svg version="1.1" xmlns="http://www.w3.org/2000/svg" xmlns:xlink="http://www.w3.org/1999/xlink" width="149.375" height="109.938">
 <g>
  <rect height="109.938" opacity="0" width="149.375" x="0" y="0"/>
  <path d="M46.0625 109.75L121.375 109.75C138.188 109.75 149.375 98.1875 149.375 83.5C149.312 71.25 141.062 60.9375 129.188 57.8125C127.625 42.5 114.875 30.5625 99.4375 30.5625C89.6875 30.5625 80.8125 35.1875 75.0625 42.875C72.8125 42.375 70.3125 41.9375 67.875 41.9375C55.8125 42 45.6875 50.5 43.375 62.125C30.8125 63.5 21.375 73.4375 21.375 85.875C21.375 99.625 31.75 109.75 46.0625 109.75ZM46.0625 100.312C37 100.312 30.8125 94.4375 30.8125 85.875C30.8125 77.75 37.375 71.375 45.8125 71.25C50.125 71.125 51.9375 69.8125 52.25 66.125C52.9375 57.5625 59.4375 51.375 67.875 51.375C70.3125 51.375 71.75 51.75 74.3125 52.75C77.6875 54.0625 79.6875 53.5 81.0625 50.75C84.3125 44.25 91.4375 40.0625 99.4375 40C110.75 40 119.875 49.3125 119.875 60.6875C119.875 65 121.125 66.375 125.375 66.875C133.625 67.8125 139.938 75.0625 139.938 83.5C139.938 93.5625 132.438 100.312 121.375 100.312ZM0 53C0 67.0625 11.1875 78.9375 28.5625 78.9375L29.1875 78.9375L32.125 69.5L29.875 69.5C17.5 69.5 9.4375 62.5 9.4375 53C9.4375 44.25 16 37.0625 24.0625 36.125C27.875 35.6875 29.3125 33.9375 29.3125 29.9375C29.125 18.875 38.625 9.4375 50.0625 9.4375C57.6875 9.5 63.9375 13.3125 68.125 20.0625C69.625 22.5625 71.875 23.125 75.0625 22.125C76.75 21.5625 79.3125 21 82.0625 21C89.6875 21 96.125 26.9375 96.375 34.5625L106 34.5625C105.75 21.6875 95.4375 11.5625 82.75 11.5625C79.625 11.5625 76.875 11.9375 74.5 12.5625C67.3125 4 59.5625 0 50.0625 0C34.5625 0.0625 21.625 12 19.9375 27.375C8.125 30.4375 0 40.875 0 53Z" fill="#000000" fill-opacity="0.85"/>
 </g>
</svg>