<?xml version="1.0" encoding="UTF-8"?>
<!--Generator: Apple Native CoreSVG 175.5-->
<!DOCTYPE svg
PUBLIC "-//W3C//DTD SVG 1.1//EN"
       "http://www.w3.org/Graphics/SVG/1.1/DTD/svg11.dtd">
<svg version="1.1" xmlns="http://www.w3.org/2000/svg" xmlns:xlink="http://www.w3.org/1999/xlink" width="110.718" height="126.438">
 <g>
  <rect height="126.438" opacity="0" width="110.718" x="0" y="0"/>
  <path d="M55.3728 126.375C58.1228 126.375 59.7478 124.438 59.7478 121.75L59.7478 108.188L70.4978 114.312C72.8103 115.562 75.1853 115.375 76.4978 113.062C77.6228 111.125 76.9353 108.688 74.5603 107.375L59.7478 98.9375L59.7478 91L58.4978 68.6875L77.3103 80.875L84.2478 84.8125L84.1228 101.875C84.0603 104.562 85.8103 106.5 87.9978 106.5C90.6853 106.5 92.0603 104.5 92.0603 101.875L92.1228 89.375L103.935 96.25C106.373 97.6875 108.685 97.0625 109.998 94.8125C111.31 92.4375 110.623 90 108.31 88.6875L96.4978 81.875L107.248 75.5625C109.498 74.1875 110.498 72.0625 109.185 69.8125C107.935 67.8125 105.56 67.25 103.248 68.625L88.5603 77.25L81.6228 73.3125L61.4353 63.1875L81.6853 53.0625L88.4978 49.0625L103.185 57.6875C105.498 59.0625 108.06 58.5 109.248 56.5625C110.498 54.3125 109.498 52.125 107.248 50.75L96.4978 44.5L108.31 37.6875C110.685 36.3125 111.373 33.9375 110.06 31.5625C108.748 29.3125 106.31 28.6875 103.998 30.125L92.1228 36.875L91.9978 24.4375C91.9978 21.75 90.6853 19.875 88.0603 19.875C85.7478 19.875 84.0603 21.75 84.1228 24.4375L84.1853 41.4375L77.3103 45.4375L58.4978 57.6875L59.7478 35.3125L59.7478 27.375L74.5603 19C76.9353 17.625 77.6228 15.25 76.4978 13.25C75.1853 11 72.8103 10.75 70.4978 12.0625L59.7478 18.1875L59.7478 4.5625C59.7478 1.875 58.1228 0 55.3728 0C52.7478 0 51.0603 1.875 51.0603 4.5625L51.0603 18.1875L40.1228 12.0625C37.8103 10.75 35.5603 11 34.1853 13.25C33.0603 15.25 33.8103 17.625 36.1853 18.9375L51.0603 27.375L51.0603 35.3125L52.2478 57.6875L33.4353 45.4375L26.4978 41.4375L26.6228 24.4375C26.6853 21.75 24.9978 19.875 22.7478 19.875C20.0603 19.875 18.6853 21.8125 18.6853 24.4375L18.6228 36.875L6.74776 30.125C4.49776 28.75 1.93526 29.3125 0.685259 31.5625C-0.689741 33.9375 0.0602591 36.375 2.43526 37.6875L14.1853 44.5L3.49776 50.75C1.24776 52.125 0.247759 54.125 1.49776 56.5625C2.62276 58.5625 5.18526 59.0625 7.56026 57.6875L22.1853 49.125L29.0603 53.0625L49.2478 63.1875L29.0603 73.3125L22.1853 77.3125L7.49776 68.625C5.18526 67.25 2.68526 67.8125 1.62276 69.75C0.310259 72.1875 1.24776 74.1875 3.49776 75.5625L14.2478 81.875L2.43526 88.6875C0.122759 90-0.627241 92.5 0.685259 94.75C2.06026 97.125 4.49776 97.625 6.74776 96.25L18.6228 89.5L18.6853 101.875C18.6853 104.5 20.0603 106.5 22.6853 106.5C24.9353 106.5 26.6853 104.562 26.6228 101.875L26.5603 84.8125L33.4353 80.9375L52.2478 68.6875L51.0603 91L51.0603 98.9375L36.1853 107.375C33.8103 108.688 33.0603 111.125 34.1853 113.062C35.5603 115.375 37.8103 115.562 40.1228 114.312L51.0603 108.125L51.0603 121.75C51.0603 124.438 52.7478 126.375 55.3728 126.375Z" fill="#000000" fill-opacity="0.85"/>
 </g>
</svg>