<?xml version="1.0" encoding="UTF-8"?>
<!--Generator: Apple Native CoreSVG 175.5-->
<!DOCTYPE svg
PUBLIC "-//W3C//DTD SVG 1.1//EN"
       "http://www.w3.org/Graphics/SVG/1.1/DTD/svg11.dtd">
<svg version="1.1" xmlns="http://www.w3.org/2000/svg" xmlns:xlink="http://www.w3.org/1999/xlink" width="124.266" height="126.438">
 <g>
  <rect height="126.438" opacity="0" width="124.266" x="0" y="0"/>
  <path d="M65.7969 47.9375L66.4219 35.3125L66.4219 27.375L81.2344 19C83.6094 17.625 84.2969 15.25 83.2344 13.25C81.8594 11 79.5469 10.75 77.1719 12.0625L66.4219 18.1875L66.4219 4.5625C66.4219 1.875 64.7969 0 62.1094 0C59.4844 0 57.7344 1.875 57.7344 4.5625L57.7344 18.1875L46.8594 12.0625C44.5469 10.75 42.2344 11 40.9219 13.25C39.7969 15.25 40.5469 17.625 42.9219 18.9375L57.7344 27.375L57.7344 35.3125L57.9219 40.0625ZM76.7344 58.9375L88.4219 53.0625L95.2344 49.0625L109.922 57.6875C112.234 59.0625 114.797 58.5 115.922 56.5625C117.234 54.3125 116.234 52.125 113.984 50.75L103.234 44.5L115.047 37.6875C117.422 36.3125 118.109 33.9375 116.734 31.5625C115.484 29.3125 113.109 28.75 110.672 30.125L98.7969 36.875L98.7344 24.4375C98.7344 21.75 97.4219 19.875 94.7969 19.875C92.4844 19.875 90.7969 21.75 90.7969 24.4375L90.9219 41.4375L84.0469 45.4375L71.4219 53.625ZM95.1094 77.25L111.609 93.75L115.672 95.5625C116.047 95.4375 116.359 95.1875 116.672 94.8125C118.109 92.5625 117.234 89.9375 114.922 88.625L102.609 82.125L113.859 75.5625C116.109 74.1875 117.109 72.0625 115.797 69.8125C114.609 67.8125 112.109 67.25 109.797 68.625ZM58.4219 78.4375L57.7344 91L57.7344 98.9375L42.9219 107.375C40.5469 108.688 39.7969 111.125 40.9219 113.062C42.2969 115.375 44.5469 115.562 46.8594 114.312L57.7344 108.125L57.7344 121.75C57.7344 124.438 59.4844 126.375 62.1094 126.375C64.7969 126.375 66.4219 124.438 66.4219 121.75L66.4219 108.188L77.1719 114.312C79.5469 115.562 81.8594 115.375 83.2344 113.062C84.2969 111.125 83.6094 108.688 81.2344 107.375L66.4219 98.9375L66.4219 91L66.2969 86.3125ZM47.4219 67.4375L35.7969 73.3125L28.8594 77.3125L14.2344 68.625C11.9219 67.25 9.42188 67.8125 8.35938 69.75C7.04688 72.1875 7.92188 74.1875 10.1719 75.5625L20.9219 81.875L9.17188 88.6875C6.85938 90 6.04688 92.5 7.42188 94.75C8.73438 97.125 11.1719 97.5625 13.4844 96.25L25.3594 89.5L25.4219 101.875C25.4219 104.5 26.7344 106.5 29.4219 106.5C31.6719 106.5 33.3594 104.562 33.3594 101.875L33.2969 84.8125L40.1719 80.9375L52.7344 72.75ZM14.2969 57.6875L29.0469 49.0625L12.5469 32.5625L8.42188 30.75C8.04688 30.8125 7.67188 31.0625 7.42188 31.5625C5.98438 33.9375 6.79688 36.375 9.10938 37.6875L21.4219 44.1875L10.2344 50.75C7.92188 52.125 6.98438 54.125 8.23438 56.5625C9.35938 58.5625 11.8594 59.0625 14.2969 57.6875ZM116.047 124C117.922 125.875 121.047 125.812 122.859 123.938C124.734 122.062 124.734 119 122.859 117.125L8.23438 2.5C6.35938 0.625 3.29688 0.5625 1.35938 2.5C-0.453125 4.3125-0.453125 7.4375 1.35938 9.3125Z" fill="#000000" fill-opacity="0.85"/>
 </g>
</svg>