<?xml version="1.0" encoding="UTF-8"?>
<!--Generator: Apple Native CoreSVG 175.5-->
<!DOCTYPE svg
PUBLIC "-//W3C//DTD SVG 1.1//EN"
       "http://www.w3.org/Graphics/SVG/1.1/DTD/svg11.dtd">
<svg version="1.1" xmlns="http://www.w3.org/2000/svg" xmlns:xlink="http://www.w3.org/1999/xlink" width="115.625" height="154.062">
 <g>
  <rect height="154.062" opacity="0" width="115.625" x="0" y="0"/>
  <path d="M66.4375 142.562C68.0625 142.562 69.25 141.375 69.5625 139.688C74 105.5 78.8125 100.25 112.688 96.5C114.438 96.3125 115.625 95.0625 115.625 93.375C115.625 91.75 114.438 90.5 112.688 90.3125C78.8125 86.5625 74 81.3125 69.5625 47.0625C69.25 45.375 68.0625 44.25 66.4375 44.25C64.8125 44.25 63.625 45.375 63.375 47.0625C58.9375 81.3125 54.0625 86.5625 20.25 90.3125C18.4375 90.5 17.25 91.75 17.25 93.375C17.25 95.0625 18.4375 96.3125 20.25 96.5C54 100.938 58.6875 105.5 63.375 139.688C63.625 141.375 64.8125 142.562 66.4375 142.562ZM24.0625 73.4375C25.25 73.4375 26.0625 72.625 26.1875 71.5C28.4375 54.8125 29 54.8125 46.25 51.5C47.3125 51.3125 48.125 50.5625 48.125 49.375C48.125 48.25 47.3125 47.4375 46.25 47.3125C29 44.875 28.375 44.3125 26.1875 27.375C26.0625 26.1875 25.25 25.375 24.0625 25.375C22.9375 25.375 22.125 26.1875 21.9375 27.4375C19.9375 44.125 19 44.0625 1.875 47.3125C0.8125 47.5 0 48.25 0 49.375C0 50.625 0.8125 51.3125 2.125 51.5C19.125 54.25 19.9375 54.6875 21.9375 71.375C22.125 72.625 22.9375 73.4375 24.0625 73.4375ZM54.3125 30.4375C55.125 30.4375 55.5625 29.9375 55.6875 29.1875C57.5625 19.0625 57.375 18.5625 68.25 16.625C69 16.4375 69.5 16 69.5 15.1875C69.5 14.4375 69 13.9375 68.25 13.8125C57.375 11.875 57.5625 11.375 55.6875 1.25C55.5625 0.5 55.125 0 54.3125 0C53.5 0 53.0625 0.5 52.9375 1.25C51.0625 11.375 51.25 11.875 40.375 13.8125C39.5625 13.9375 39.125 14.4375 39.125 15.1875C39.125 16 39.5625 16.4375 40.375 16.625C51.25 18.5625 51.0625 19.0625 52.9375 29.1875C53.0625 29.9375 53.5 30.4375 54.3125 30.4375Z" fill="#000000" fill-opacity="0.85"/>
 </g>
</svg>