<?xml version="1.0" encoding="UTF-8"?>
<!--Generator: Apple Native CoreSVG 175.5-->
<!DOCTYPE svg
PUBLIC "-//W3C//DTD SVG 1.1//EN"
       "http://www.w3.org/Graphics/SVG/1.1/DTD/svg11.dtd">
<svg version="1.1" xmlns="http://www.w3.org/2000/svg" xmlns:xlink="http://www.w3.org/1999/xlink" width="144.25" height="150.438">
 <g>
  <rect height="150.438" opacity="0" width="144.25" x="0" y="0"/>
  <path d="M46.0625 94L62.5 94C54.0625 90.4375 48 81.9375 48 72.125C48 58.875 58.875 48 72.125 48C85.375 48 96.25 58.875 96.25 72.125C96.25 81.9375 90.1875 90.4375 81.75 94L98.125 94C103.25 88.125 106.312 80.4375 106.312 72.125C106.312 53.375 90.75 37.875 72.125 37.875C53.4375 37.875 37.9375 53.375 37.9375 72.125C37.9375 80.4375 41 88.125 46.0625 94ZM5.5625 75.5625L20.9375 75.5625C24.1875 75.5625 26.625 73.3125 26.5625 70.5C26.5 67.75 24.1875 65.4375 20.9375 65.4375L5.5625 65.4375C2.3125 65.4375 0 67.6875 0 70.5C0 73.3125 2.3125 75.5625 5.5625 75.5625ZM39.875 39.875C41.8125 37.875 41.8125 34.625 39.5 32.3125L28.625 21.4375C26.3125 19.125 23.125 19.1875 21.125 21.125C19.125 23.0625 19.125 26.3125 21.4375 28.625L32.3125 39.5C34.625 41.8125 37.9375 41.875 39.875 39.875ZM72.125 26.5625C74.9375 26.5 77.1875 24.125 77.1875 20.9375L77.1875 5.5625C77.1875 2.3125 74.9375 0 72.125 0C69.3125 0 67.0625 2.3125 67.0625 5.5625L67.0625 20.9375C67.0625 24.125 69.3125 26.625 72.125 26.5625ZM104.375 39.875C106.312 41.8125 109.625 41.8125 111.938 39.5L122.812 28.625C125.125 26.3125 125.062 23.125 123.062 21.125C121.188 19.125 117.938 19.125 115.562 21.4375L104.688 32.3125C102.438 34.625 102.375 37.9375 104.375 39.875ZM123.312 75.5625L138.688 75.5625C141.938 75.5625 144.25 73.3125 144.25 70.5C144.25 67.75 141.938 65.4375 138.688 65.4375L123.312 65.4375C120.062 65.4375 117.625 67.6875 117.688 70.5C117.75 73.3125 120.062 75.5625 123.312 75.5625ZM8.5 99.8125L135.438 99.8125C137.688 99.8125 139.375 98.125 139.375 95.875C139.375 93.625 137.688 91.9375 135.438 91.9375L8.5 91.9375C6.3125 91.9375 4.5625 93.625 4.5625 95.875C4.5625 98.125 6.3125 99.8125 8.5 99.8125ZM14.125 120C15.8125 120 17.25 118.562 17.25 116.812C17.25 115.062 15.8125 113.625 14.125 113.625C12.3125 113.625 10.9375 115.062 10.9375 116.812C10.9375 118.562 12.3125 120 14.125 120ZM40.5 120C42.25 120 43.6875 118.562 43.6875 116.812C43.6875 115.062 42.25 113.625 40.5 113.625C38.75 113.625 37.3125 115.062 37.3125 116.812C37.3125 118.562 38.75 120 40.5 120ZM66.9375 120C68.625 120 70.0625 118.562 70.0625 116.812C70.0625 115.062 68.625 113.625 66.9375 113.625C65.125 113.625 63.75 115.062 63.75 116.812C63.75 118.562 65.125 120 66.9375 120ZM93.3125 120C95.0625 120 96.5 118.562 96.5 116.812C96.5 115.062 95.0625 113.625 93.3125 113.625C91.5625 113.625 90.125 115.062 90.125 116.812C90.125 118.562 91.5625 120 93.3125 120ZM119.75 120C121.438 120 122.875 118.562 122.875 116.812C122.875 115.062 121.438 113.625 119.75 113.625C117.938 113.625 116.562 115.062 116.562 116.812C116.562 118.562 117.938 120 119.75 120ZM6.125 135.188C7.875 135.188 9.3125 133.75 9.3125 131.938C9.3125 130.25 7.875 128.812 6.125 128.812C4.375 128.812 2.9375 130.25 2.9375 131.938C2.9375 133.75 4.375 135.188 6.125 135.188ZM32.5625 135.188C34.25 135.188 35.6875 133.75 35.6875 131.938C35.6875 130.25 34.25 128.812 32.5625 128.812C30.75 128.812 29.3125 130.25 29.3125 131.938C29.3125 133.75 30.75 135.188 32.5625 135.188ZM58.9375 135.188C60.6875 135.188 62.125 133.75 62.125 131.938C62.125 130.25 60.6875 128.812 58.9375 128.812C57.1875 128.812 55.75 130.25 55.75 131.938C55.75 133.75 57.1875 135.188 58.9375 135.188ZM85.375 135.188C87.0625 135.188 88.5 133.75 88.5 131.938C88.5 130.25 87.0625 128.812 85.375 128.812C83.5625 128.812 82.125 130.25 82.125 131.938C82.125 133.75 83.5625 135.188 85.375 135.188ZM111.75 135.188C113.5 135.188 114.938 133.75 114.938 131.938C114.938 130.25 113.5 128.812 111.75 128.812C110 128.812 108.562 130.25 108.562 131.938C108.562 133.75 110 135.188 111.75 135.188ZM138.188 135.188C139.875 135.188 141.312 133.75 141.312 131.938C141.312 130.25 139.875 128.812 138.188 128.812C136.375 128.812 134.938 130.25 134.938 131.938C134.938 133.75 136.375 135.188 138.188 135.188ZM24.5625 150.25C26.3125 150.25 27.6875 148.812 27.6875 147C27.6875 145.312 26.3125 143.875 24.5625 143.875C22.75 143.875 21.375 145.312 21.375 147C21.375 148.812 22.75 150.25 24.5625 150.25ZM51 150.25C52.6875 150.25 54.125 148.812 54.125 147C54.125 145.312 52.6875 143.875 51 143.875C49.1875 143.875 47.75 145.312 47.75 147C47.75 148.812 49.1875 150.25 51 150.25ZM77.375 150.25C79.125 150.25 80.5 148.812 80.5 147C80.5 145.312 79.125 143.875 77.375 143.875C75.5625 143.875 74.1875 145.312 74.1875 147C74.1875 148.812 75.5625 150.25 77.375 150.25ZM103.812 150.25C105.5 150.25 106.938 148.812 106.938 147C106.938 145.312 105.5 143.875 103.812 143.875C102 143.875 100.562 145.312 100.562 147C100.562 148.812 102 150.25 103.812 150.25ZM130.188 150.25C131.938 150.25 133.312 148.812 133.312 147C133.312 145.312 131.938 143.875 130.188 143.875C128.375 143.875 127 145.312 127 147C127 148.812 128.375 150.25 130.188 150.25Z" fill="#000000" fill-opacity="0.85"/>
 </g>
</svg>