<?xml version="1.0" encoding="UTF-8"?>
<!--Generator: Apple Native CoreSVG 175.5-->
<!DOCTYPE svg
PUBLIC "-//W3C//DTD SVG 1.1//EN"
       "http://www.w3.org/Graphics/SVG/1.1/DTD/svg11.dtd">
<svg version="1.1" xmlns="http://www.w3.org/2000/svg" xmlns:xlink="http://www.w3.org/1999/xlink" width="144.25" height="150.438">
 <g>
  <rect height="150.438" opacity="0" width="144.25" x="0" y="0"/>
  <path d="M46.0625 94L62.5 94C54.0625 90.4375 48 81.9375 48 72.125C48 58.875 58.875 48 72.125 48C85.375 48 96.25 58.875 96.25 72.125C96.25 81.9375 90.1875 90.4375 81.75 94L98.125 94C103.25 88.125 106.312 80.4375 106.312 72.125C106.312 53.375 90.75 37.875 72.125 37.875C53.4375 37.875 37.9375 53.375 37.9375 72.125C37.9375 80.4375 41 88.125 46.0625 94ZM5.5625 75.5625L20.9375 75.5625C24.1875 75.5625 26.625 73.3125 26.5625 70.5C26.5 67.75 24.1875 65.4375 20.9375 65.4375L5.5625 65.4375C2.3125 65.4375 0 67.6875 0 70.5C0 73.3125 2.3125 75.5625 5.5625 75.5625ZM39.875 39.875C41.8125 37.875 41.8125 34.625 39.5 32.3125L28.625 21.4375C26.3125 19.125 23.125 19.1875 21.125 21.125C19.125 23.0625 19.125 26.3125 21.4375 28.625L32.3125 39.5C34.625 41.8125 37.9375 41.875 39.875 39.875ZM72.125 26.5625C74.9375 26.5 77.1875 24.125 77.1875 20.9375L77.1875 5.5625C77.1875 2.3125 74.9375 0 72.125 0C69.3125 0 67.0625 2.3125 67.0625 5.5625L67.0625 20.9375C67.0625 24.125 69.3125 26.625 72.125 26.5625ZM104.375 39.875C106.312 41.8125 109.625 41.8125 111.938 39.5L122.812 28.625C125.125 26.3125 125.062 23.125 123.062 21.125C121.188 19.125 117.938 19.125 115.562 21.4375L104.688 32.3125C102.438 34.625 102.375 37.9375 104.375 39.875ZM123.312 75.5625L138.688 75.5625C141.938 75.5625 144.25 73.3125 144.25 70.5C144.25 67.75 141.938 65.4375 138.688 65.4375L123.312 65.4375C120.062 65.4375 117.625 67.6875 117.688 70.5C117.75 73.3125 120.062 75.5625 123.312 75.5625ZM13.375 99.8125L140.312 99.8125C142.5 99.8125 144.25 98.125 144.25 95.875C144.25 93.625 142.5 91.9375 140.312 91.9375L13.375 91.9375C11.125 91.9375 9.4375 93.625 9.4375 95.875C9.4375 98.125 11.125 99.8125 13.375 99.8125ZM3.9375 123.875L130.875 123.875C133.062 123.875 134.812 122.125 134.812 119.875C134.812 117.625 133.062 115.938 130.875 115.938L3.9375 115.938C1.75 115.938 0 117.625 0 119.875C0 122.125 1.75 123.875 3.9375 123.875ZM13.375 147.875L140.312 147.875C142.5 147.875 144.25 146.188 144.25 143.938C144.25 141.625 142.5 139.938 140.312 139.938L13.375 139.938C11.125 139.938 9.4375 141.625 9.4375 143.938C9.4375 146.188 11.125 147.875 13.375 147.875Z" fill="#000000" fill-opacity="0.85"/>
 </g>
</svg>