<?xml version="1.0" encoding="UTF-8"?>
<!--Generator: Apple Native CoreSVG 175.5-->
<!DOCTYPE svg
PUBLIC "-//W3C//DTD SVG 1.1//EN"
       "http://www.w3.org/Graphics/SVG/1.1/DTD/svg11.dtd">
<svg version="1.1" xmlns="http://www.w3.org/2000/svg" xmlns:xlink="http://www.w3.org/1999/xlink" width="160.188" height="111.562">
 <g>
  <rect height="111.562" opacity="0" width="160.188" x="0" y="0"/>
  <path d="M54.0625 94L70.5 94C62 90.4375 55.9375 81.9375 55.9375 72.125C55.9375 58.875 66.875 47.9375 80.125 47.9375C93.3125 47.9375 104.25 58.875 104.25 72.125C104.25 81.9375 98.1875 90.4375 89.6875 94L106.125 94C111.188 88.0625 114.25 80.4375 114.25 72.125C114.25 53.375 98.75 37.875 80.125 37.875C61.4375 37.875 45.9375 53.375 45.9375 72.125C45.9375 80.4375 49 88.0625 54.0625 94ZM13.5625 75.5625L28.9375 75.5625C32.1875 75.5625 34.625 73.3125 34.5625 70.5C34.5 67.6875 32.125 65.4375 28.9375 65.4375L13.5625 65.4375C10.3125 65.4375 8 67.6875 8 70.5C8 73.3125 10.3125 75.5625 13.5625 75.5625ZM47.875 39.875C49.8125 37.875 49.8125 34.5625 47.5 32.3125L36.625 21.4375C34.3125 19.0625 31.125 19.1875 29.125 21.125C27.125 23.0625 27.0625 26.3125 29.4375 28.625L40.3125 39.5C42.5625 41.8125 45.9375 41.875 47.875 39.875ZM112.312 39.875C114.312 41.8125 117.625 41.8125 119.875 39.5L130.75 28.625C133.125 26.3125 133 23.125 131.062 21.125C129.125 19.125 125.875 19.0625 123.562 21.4375L112.688 32.3125C110.375 34.5625 110.312 37.9375 112.312 39.875ZM131.25 75.5625L146.625 75.5625C149.875 75.5625 152.188 73.3125 152.188 70.5C152.188 67.6875 149.875 65.4375 146.625 65.4375L131.25 65.4375C128.062 65.4375 125.562 67.6875 125.625 70.5C125.688 73.3125 128.062 75.5625 131.25 75.5625ZM80.125 26.5625C82.875 26.5 85.1875 24.125 85.1875 20.9375L85.1875 5.5625C85.1875 2.3125 82.875 0 80.125 0C77.3125 0 75 2.3125 75 5.5625L75 20.9375C75 24.125 77.3125 26.625 80.125 26.5625ZM5.4375 101.938L154.75 101.938C157.688 101.938 160.188 99.6875 160.188 96.9375C160.188 94.1875 157.688 91.9375 154.75 91.9375L5.4375 91.9375C2.5 91.9375 0 94.1875 0 96.9375C0 99.6875 2.5 101.938 5.4375 101.938Z" fill="#000000" fill-opacity="0.85"/>
 </g>
</svg>