<?xml version="1.0" encoding="UTF-8"?>
<!--Generator: Apple Native CoreSVG 175.5-->
<!DOCTYPE svg
PUBLIC "-//W3C//DTD SVG 1.1//EN"
       "http://www.w3.org/Graphics/SVG/1.1/DTD/svg11.dtd">
<svg version="1.1" xmlns="http://www.w3.org/2000/svg" xmlns:xlink="http://www.w3.org/1999/xlink" width="125.375" height="125.438">
 <g>
  <rect height="125.438" opacity="0" width="125.375" x="0" y="0"/>
  <path d="M62.6875 94.5C80.0625 94.5 94.5625 80.0625 94.5625 62.6875C94.5625 45.25 80.0625 30.8125 62.6875 30.8125C45.3125 30.8125 30.875 45.25 30.875 62.6875C30.875 80.0625 45.3125 94.5 62.6875 94.5ZM62.6875 85C50.5 85 40.375 74.875 40.375 62.6875C40.375 50.5 50.5 40.3125 62.6875 40.3125C74.875 40.3125 85.0625 50.4375 85.0625 62.6875C85.0625 74.875 74.875 85 62.6875 85ZM7.3125 70C11.3125 70 14.625 66.6875 14.625 62.6875C14.625 58.625 11.3125 55.375 7.3125 55.375C3.3125 55.375 0 58.625 0 62.6875C0 66.6875 3.3125 70 7.3125 70ZM23.5 30.8125C27.5625 30.8125 30.8125 27.5 30.8125 23.5C30.8125 19.5 27.5625 16.1875 23.5 16.1875C19.5 16.1875 16.1875 19.5 16.1875 23.5C16.1875 27.5 19.5 30.8125 23.5 30.8125ZM62.6875 14.625C66.6875 14.625 70 11.3125 70 7.3125C70 3.3125 66.6875 0 62.6875 0C58.6875 0 55.375 3.3125 55.375 7.3125C55.375 11.3125 58.6875 14.625 62.6875 14.625ZM101.875 30.8125C105.875 30.8125 109.188 27.5 109.188 23.5C109.188 19.5 105.875 16.1875 101.875 16.1875C97.875 16.1875 94.5625 19.5 94.5625 23.5C94.5625 27.5 97.875 30.8125 101.875 30.8125ZM118.062 70C122.062 70 125.375 66.6875 125.375 62.6875C125.375 58.625 122.062 55.375 118.062 55.375C114.062 55.375 110.75 58.625 110.75 62.6875C110.75 66.6875 114.062 70 118.062 70ZM101.875 109.188C105.875 109.188 109.188 105.875 109.188 101.875C109.188 97.8125 105.875 94.5625 101.875 94.5625C97.875 94.5625 94.5625 97.8125 94.5625 101.875C94.5625 105.875 97.875 109.188 101.875 109.188ZM62.6875 125.375C66.6875 125.375 70 122.062 70 118.062C70 114 66.6875 110.75 62.6875 110.75C58.6875 110.75 55.375 114 55.375 118.062C55.375 122.062 58.6875 125.375 62.6875 125.375ZM23.5 109.188C27.5625 109.188 30.8125 105.875 30.8125 101.875C30.8125 97.8125 27.5625 94.5625 23.5 94.5625C19.5 94.5625 16.1875 97.8125 16.1875 101.875C16.1875 105.875 19.5 109.188 23.5 109.188Z" fill="#000000" fill-opacity="0.85"/>
 </g>
</svg>