<?xml version="1.0" encoding="UTF-8"?>
<!--Generator: Apple Native CoreSVG 175.5-->
<!DOCTYPE svg
PUBLIC "-//W3C//DTD SVG 1.1//EN"
       "http://www.w3.org/Graphics/SVG/1.1/DTD/svg11.dtd">
<svg version="1.1" xmlns="http://www.w3.org/2000/svg" xmlns:xlink="http://www.w3.org/1999/xlink" width="135.188" height="135.688">
 <g>
  <rect height="135.688" opacity="0" width="135.188" x="0" y="0"/>
  <path d="M67.5625 99.6875C84.9375 99.6875 99.375 85.25 99.375 67.8125C99.375 50.3125 84.9375 35.875 67.5625 35.875C50.1875 35.875 35.75 50.3125 35.75 67.8125C35.75 85.25 50.1875 99.6875 67.5625 99.6875ZM67.5625 90.125C55.375 90.125 45.25 80 45.25 67.8125C45.25 55.5625 55.375 45.4375 67.5625 45.4375C79.75 45.4375 89.875 55.5625 89.875 67.8125C89.875 80 79.75 90.125 67.5625 90.125ZM67.625 24.3125C70.5625 24.3125 73 21.875 73 18.875L73 5.4375C73 2.4375 70.5625 0 67.625 0C64.625 0 62.1875 2.4375 62.1875 5.4375L62.1875 18.875C62.1875 21.875 64.625 24.3125 67.625 24.3125ZM98.25 37.125C100.375 39.1875 103.812 39.25 105.938 37.125L115.5 27.5625C117.562 25.5 117.562 22 115.5 19.875C113.438 17.8125 110 17.8125 107.875 19.875L98.25 29.5C96.1875 31.625 96.1875 35.0625 98.25 37.125ZM110.938 67.8125C110.938 70.75 113.438 73.1875 116.375 73.1875L129.812 73.1875C132.75 73.1875 135.188 70.75 135.188 67.8125C135.188 64.875 132.75 62.375 129.812 62.375L116.375 62.375C113.438 62.375 110.938 64.875 110.938 67.8125ZM98.25 98.5C96.1875 100.625 96.1875 104.062 98.25 106.125L107.875 115.812C110 117.812 113.438 117.75 115.5 115.75C117.562 113.625 117.562 110.188 115.5 108.125L105.875 98.5C103.812 96.5 100.375 96.5 98.25 98.5ZM67.625 111.312C64.625 111.312 62.1875 113.75 62.1875 116.688L62.1875 130.188C62.1875 133.125 64.625 135.562 67.625 135.562C70.5625 135.562 73 133.125 73 130.188L73 116.688C73 113.75 70.5625 111.312 67.625 111.312ZM36.9375 98.5C34.8125 96.5 31.3125 96.5 29.25 98.5L19.6875 108.062C17.625 110.125 17.625 113.562 19.625 115.688C21.6875 117.688 25.1875 117.75 27.3125 115.75L36.875 106.125C38.9375 104.062 38.9375 100.625 36.9375 98.5ZM24.25 67.8125C24.25 64.875 21.75 62.375 18.8125 62.375L5.375 62.375C2.4375 62.375 0 64.875 0 67.8125C0 70.75 2.4375 73.1875 5.375 73.1875L18.8125 73.1875C21.75 73.1875 24.25 70.75 24.25 67.8125ZM36.875 37.125C38.9375 35.125 38.9375 31.5625 36.9375 29.5L27.375 19.875C25.3125 17.875 21.8125 17.8125 19.75 19.875C17.6875 22 17.6875 25.5 19.6875 27.5L29.25 37.125C31.3125 39.1875 34.75 39.1875 36.875 37.125Z" fill="#000000" fill-opacity="0.85"/>
 </g>
</svg>