<?xml version="1.0" encoding="UTF-8"?>
<!--Generator: Apple Native CoreSVG 175.5-->
<!DOCTYPE svg
PUBLIC "-//W3C//DTD SVG 1.1//EN"
       "http://www.w3.org/Graphics/SVG/1.1/DTD/svg11.dtd">
<svg version="1.1" xmlns="http://www.w3.org/2000/svg" xmlns:xlink="http://www.w3.org/1999/xlink" width="160.188" height="130.562">
 <g>
  <rect height="130.562" opacity="0" width="160.188" x="0" y="0"/>
  <path d="M54.0625 122.5L70.5 122.5C62 118.938 55.9375 110.438 55.9375 100.625C55.9375 87.375 66.875 76.4375 80.125 76.4375C93.3125 76.4375 104.25 87.375 104.25 100.625C104.25 110.438 98.1875 118.938 89.6875 122.5L106.125 122.5C111.188 116.625 114.25 108.938 114.25 100.625C114.25 81.875 98.75 66.375 80.125 66.375C61.4375 66.375 45.9375 81.875 45.9375 100.625C45.9375 108.938 49 116.625 54.0625 122.5ZM13.5625 104.062L28.9375 104.062C32.1875 104.062 34.625 101.812 34.5625 99C34.5 96.1875 32.125 93.9375 28.9375 93.9375L13.5625 93.9375C10.3125 93.9375 8 96.1875 8 99C8 101.812 10.3125 104.062 13.5625 104.062ZM47.875 68.375C49.8125 66.375 49.8125 63.0625 47.5 60.8125L36.625 49.9375C34.3125 47.625 31.125 47.6875 29.125 49.625C27.125 51.5625 27.0625 54.8125 29.4375 57.125L40.3125 68C42.5625 70.3125 45.9375 70.375 47.875 68.375ZM112.312 68.375C114.312 70.3125 117.625 70.3125 119.875 68L130.75 57.125C133.125 54.8125 133 51.625 131.062 49.625C129.125 47.625 125.875 47.625 123.562 49.9375L112.688 60.8125C110.375 63.0625 110.312 66.4375 112.312 68.375ZM131.25 104.062L146.625 104.062C149.875 104.062 152.188 101.812 152.188 99C152.188 96.1875 149.875 93.9375 146.625 93.9375L131.25 93.9375C128.062 93.9375 125.562 96.1875 125.625 99C125.688 101.812 128.062 104.062 131.25 104.062ZM5.4375 130.438L154.75 130.438C157.688 130.438 160.188 128.188 160.188 125.438C160.188 122.688 157.688 120.438 154.75 120.438L5.4375 120.438C2.5 120.438 0 122.688 0 125.438C0 128.188 2.5 130.438 5.4375 130.438ZM80.125 51C82.875 51 85.1875 48.5625 85.1875 45.5L85.1875 22.0625L84.4375 12.625L89.0625 17.9375L96.875 25.875C97.8125 26.75 99 27.3125 100.188 27.3125C102.688 27.3125 104.5 25.5625 104.5 23.125C104.5 21.8125 104.062 20.8125 103 19.8125L83.5 1.625C82.1875 0.4375 81.25 0 80.125 0C78.9375 0 78 0.4375 76.6875 1.625L57.1875 19.8125C56.125 20.8125 55.6875 21.8125 55.6875 23.125C55.6875 25.5625 57.5 27.3125 60 27.3125C61.1875 27.3125 62.375 26.75 63.3125 25.875L71.75 17.3125L75.75 12.625L75 22.0625L75 45.5C75 48.5625 77.3125 51 80.125 51Z" fill="#000000" fill-opacity="0.85"/>
 </g>
</svg>