<?xml version="1.0" encoding="UTF-8"?>
<!--Generator: Apple Native CoreSVG 175.5-->
<!DOCTYPE svg
PUBLIC "-//W3C//DTD SVG 1.1//EN"
       "http://www.w3.org/Graphics/SVG/1.1/DTD/svg11.dtd">
<svg version="1.1" xmlns="http://www.w3.org/2000/svg" xmlns:xlink="http://www.w3.org/1999/xlink" width="81.3125" height="139.062">
 <g>
  <rect height="139.062" opacity="0" width="81.3125" x="0" y="0"/>
  <path d="M32.75 138.875C50.75 138.875 65.3125 124.25 65.3125 106.25C65.3125 96.75 61.4375 88.4375 53.9375 81.6875C52.625 80.5 52.3125 79.75 52.3125 77.875L52.3125 21.375C52.3125 8.6875 44.375 0 32.75 0C21 0 13 8.6875 13 21.375L13 77.875C13 79.75 12.75 80.5 11.375 81.6875C3.9375 88.4375 0 96.75 0 106.25C0 124.25 14.625 138.875 32.75 138.875ZM32.75 129.812C19.6875 129.812 9.1875 119.188 9.1875 106.25C9.1875 98.4375 12.875 91.375 19.5 86.9375C21.4375 85.625 22.1875 84.4375 22.1875 81.875L22.1875 21.75C22.1875 14.25 26.5 9.1875 32.75 9.1875C38.875 9.1875 43.1875 14.25 43.1875 21.75L43.1875 81.875C43.1875 84.4375 43.9375 85.625 45.875 86.9375C52.5 91.375 56.1875 98.4375 56.1875 106.25C56.1875 119.188 45.625 129.812 32.75 129.812ZM32.6875 121.375C41.0625 121.375 47.8125 114.625 47.8125 106.188C47.8125 100.312 44.5 95.5 39.6875 92.875C37.6875 91.8125 37 91.0625 37 88L37 76.4375C37 73.4375 35.0625 71.5 32.6875 71.5C30.25 71.5 28.375 73.4375 28.375 76.4375L28.375 88C28.375 91.0625 27.6875 91.8125 25.6875 92.875C20.875 95.5 17.5625 100.312 17.5625 106.188C17.5625 114.625 24.3125 121.375 32.6875 121.375ZM64.0625 22.9375L77.625 22.9375C79.8125 22.9375 81.3125 21.25 81.3125 19.3125C81.3125 17.375 79.8125 15.6875 77.625 15.6875L64.0625 15.6875C61.875 15.6875 60.375 17.375 60.375 19.3125C60.375 21.25 61.875 22.9375 64.0625 22.9375ZM64.0625 40.5L77.625 40.5C79.8125 40.5 81.3125 38.8125 81.3125 36.875C81.3125 34.9375 79.8125 33.25 77.625 33.25L64.0625 33.25C61.875 33.25 60.375 34.9375 60.375 36.875C60.375 38.8125 61.875 40.5 64.0625 40.5ZM64.0625 58.0625L77.625 58.0625C79.8125 58.0625 81.3125 56.375 81.3125 54.4375C81.3125 52.5 79.8125 50.75 77.625 50.75L64.0625 50.75C61.875 50.75 60.375 52.5 60.375 54.4375C60.375 56.375 61.875 58.0625 64.0625 58.0625ZM64.0625 75.625L77.625 75.625C79.8125 75.625 81.3125 73.9375 81.3125 72C81.3125 70 79.8125 68.3125 77.625 68.3125L64.0625 68.3125C61.875 68.3125 60.375 70 60.375 72C60.375 73.9375 61.875 75.625 64.0625 75.625Z" fill="#000000" fill-opacity="0.85"/>
 </g>
</svg>