<?xml version="1.0" encoding="UTF-8"?>
<!--Generator: Apple Native CoreSVG 175.5-->
<!DOCTYPE svg
PUBLIC "-//W3C//DTD SVG 1.1//EN"
       "http://www.w3.org/Graphics/SVG/1.1/DTD/svg11.dtd">
<svg version="1.1" xmlns="http://www.w3.org/2000/svg" xmlns:xlink="http://www.w3.org/1999/xlink" width="127.062" height="183.188">
 <g>
  <rect height="183.188" opacity="0" width="127.062" x="0" y="0"/>
  <path d="M32.75 161C50.75 161 65.3125 146.375 65.3125 128.375C65.3125 118.875 61.4375 110.562 53.9375 103.812C52.625 102.562 52.3125 101.875 52.3125 100L52.375 43.5C52.375 30.8125 44.375 22.125 32.75 22.125C21 22.125 12.9375 30.8125 12.9375 43.5L13 100C13 101.875 12.75 102.562 11.375 103.812C3.9375 110.562 0 118.875 0 128.375C0 146.375 14.625 161 32.75 161ZM32.75 151.938C19.6875 151.938 9.1875 141.312 9.1875 128.375C9.1875 120.562 12.875 113.5 19.5 109.062C21.4375 107.75 22.1875 106.562 22.1875 104L22.1875 43.875C22.1875 36.375 26.5 31.3125 32.75 31.3125C38.875 31.3125 43.1875 36.375 43.1875 43.875L43.1875 104C43.1875 106.562 43.9375 107.75 45.875 109.062C52.5 113.5 56.1875 120.562 56.1875 128.375C56.1875 141.312 45.625 151.938 32.75 151.938ZM32.6875 143.5C41.0625 143.5 47.8125 136.688 47.8125 128.312C47.8125 122.438 44.5 117.625 39.6875 115C37.6875 113.938 37 113.188 37 110.125L37 49.1875C37 46.1875 35.0625 44.25 32.6875 44.25C30.25 44.25 28.375 46.1875 28.375 49.1875L28.375 110.125C28.375 113.188 27.6875 113.938 25.6875 115C20.875 117.625 17.5625 122.438 17.5625 128.312C17.5625 136.75 24.3125 143.5 32.6875 143.5ZM62.5 95.75C79.6875 95.75 93.375 82 93.375 64.8125C93.375 47.5625 79.6875 33.8125 62.5 33.8125C56.875 33.8125 51.5 35.375 46.75 38.25L51.75 46.0625C54.9375 44.125 58.625 42.9375 62.5 42.9375C74.6875 42.9375 84.25 52.5 84.25 64.8125C84.25 77.0625 74.6875 86.625 62.5 86.625C57.5 86.625 52.8125 84.875 48.9375 81.875L48.9375 92.5625C53.125 94.6875 57.6875 95.75 62.5 95.75ZM62.5 23.875C65.375 23.875 67.6875 21.5 67.6875 18.6875L67.6875 5.1875C67.6875 2.3125 65.375 0 62.5 0C59.625 0 57.3125 2.3125 57.3125 5.1875L57.3125 18.6875C57.3125 21.5 59.625 23.875 62.5 23.875ZM91.375 35.9375C93.3125 37.9375 96.6875 38 98.75 35.9375L108.25 26.3125C110.312 24.3125 110.25 21 108.25 19C106.312 17 103.062 17 101 19L91.375 28.6875C89.375 30.6875 89.4375 33.9375 91.375 35.9375ZM108.438 70L121.938 70C124.75 70 127.062 67.625 127.062 64.8125C127.062 61.9375 124.75 59.625 121.938 59.625L108.438 59.625C105.625 59.625 103.25 61.9375 103.25 64.8125C103.25 67.625 105.625 70 108.438 70ZM101 110.688C103.062 112.688 106.312 112.625 108.25 110.625C110.25 108.625 110.312 105.312 108.25 103.375L98.625 93.75C96.625 91.8125 93.375 91.75 91.375 93.75C89.375 95.75 89.375 99.0625 91.375 101.062Z" fill="#000000" fill-opacity="0.85"/>
 </g>
</svg>