<?xml version="1.0" encoding="UTF-8"?>
<!--Generator: Apple Native CoreSVG 175.5-->
<!DOCTYPE svg
PUBLIC "-//W3C//DTD SVG 1.1//EN"
       "http://www.w3.org/Graphics/SVG/1.1/DTD/svg11.dtd">
<svg version="1.1" xmlns="http://www.w3.org/2000/svg" xmlns:xlink="http://www.w3.org/1999/xlink" width="116.374" height="149.062">
 <g>
  <rect height="149.062" opacity="0" width="116.374" x="0" y="0"/>
  <path d="M32.75 143.875C50.75 143.875 65.3125 129.25 65.3125 111.25C65.3125 101.75 61.4375 93.4375 53.9375 86.6875C52.625 85.5 52.3125 84.75 52.3125 82.875L52.375 26.375C52.375 13.6875 44.375 5 32.75 5C21 5 12.9375 13.6875 12.9375 26.375L13 82.875C13 84.75 12.75 85.5 11.375 86.6875C3.9375 93.4375 0 101.75 0 111.25C0 129.25 14.625 143.875 32.75 143.875ZM32.75 134.812C19.6875 134.812 9.1875 124.188 9.1875 111.25C9.1875 103.438 12.875 96.375 19.5 91.9375C21.4375 90.625 22.1875 89.4375 22.1875 86.875L22.1875 26.75C22.1875 19.25 26.5 14.1875 32.75 14.1875C38.875 14.1875 43.1875 19.25 43.1875 26.75L43.1875 86.875C43.1875 89.4375 43.9375 90.625 45.875 91.9375C52.5 96.375 56.1875 103.438 56.1875 111.25C56.1875 124.188 45.625 134.812 32.75 134.812ZM32.6875 126.375C41.0625 126.375 47.8125 119.625 47.8125 111.188C47.8125 105.312 44.5 100.5 39.6875 97.875C37.6875 96.8125 37 96.0625 37 93L37 80.5C37 77.5 35.0625 75.5625 32.6875 75.5625C30.25 75.5625 28.375 77.5 28.375 80.5L28.375 93C28.375 96.0625 27.6875 96.8125 25.6875 97.875C20.875 100.5 17.5625 105.312 17.5625 111.188C17.5625 119.625 24.3125 126.375 32.6875 126.375ZM114.25 66.75L105.75 61.875L113.312 57.5C114.938 56.5625 115.562 54.6875 114.688 53.125C113.75 51.4375 111.812 51.1875 110.062 52.1875L99.4375 58.25L80.8125 47.6875L99.625 37.0625L110.25 43.1875C111.938 44.1875 113.812 43.875 114.875 42.25C115.688 40.625 115.062 38.75 113.5 37.875L105.938 33.5L114.312 28.75C116.25 27.625 116.938 25.6875 115.875 23.875C114.938 22.125 112.812 21.75 111.125 22.75L102.625 27.6875L102.625 19.0625C102.625 17.125 101.312 15.6875 99.5625 15.6875C97.5625 15.6875 96.375 17.125 96.375 19.25L96.3125 31.375L77.6875 42.3125L77.875 20.5625L88.4375 14.4375C90.1875 13.375 90.875 11.625 89.9375 9.9375C89 8.375 87.125 8 85.5 8.9375L77.9375 13.3125L78 3.8125C78 1.6875 76.6875 0 74.625 0C72.5 0 71.25 1.6875 71.25 3.8125L71.3125 13.3125L63.75 8.9375C62.125 8 60.1875 8.375 59.3125 9.9375C58.375 11.625 59.0625 13.375 60.8125 14.4375L71.375 20.5625L71.5625 42.3125L59.6875 35.3125L59.6875 42.6875L68.375 47.6875L59.6875 52.625L59.6875 60.0625L71.5625 53.0625L71.375 74.6875L61.8125 80.1875C62.5625 81.875 64.1875 83.9375 65.75 85.125L71.3125 81.9375L71.25 91.5625C71.25 93.75 72.5 95.375 74.625 95.375C76.6875 95.375 78 93.6875 78 91.5625L77.9375 82L85.4375 86.3125C87.0625 87.25 88.9375 86.875 89.875 85.3125C90.875 83.625 90.125 81.875 88.375 80.8125L77.875 74.6875L77.6875 53.0625L96.1875 63.9375L96.1875 76.125C96.1875 78.0625 97.4375 79.5625 99.375 79.625C101.125 79.625 102.438 78.0625 102.438 76.3125L102.5 67.625L110.875 72.5625C112.75 73.625 114.812 73.375 115.875 71.5625C116.938 69.75 116.125 67.75 114.25 66.75Z" fill="#000000" fill-opacity="0.85"/>
 </g>
</svg>