<?xml version="1.0" encoding="UTF-8"?>
<!--Generator: Apple Native CoreSVG 175.5-->
<!DOCTYPE svg
PUBLIC "-//W3C//DTD SVG 1.1//EN"
       "http://www.w3.org/Graphics/SVG/1.1/DTD/svg11.dtd">
<svg version="1.1" xmlns="http://www.w3.org/2000/svg" xmlns:xlink="http://www.w3.org/1999/xlink" width="107.828" height="139.062">
 <g>
  <rect height="139.062" opacity="0" width="107.828" x="0" y="0"/>
  <path d="M46.3204 0C36.1329 0 28.6329 6.5 27.0704 16.5L27.0079 20.625L35.7579 29.375L35.7579 21.75C35.7579 14.25 40.0079 9.1875 46.3204 9.1875C52.4454 9.1875 56.7579 14.25 56.7579 21.75L56.7579 50.375L65.8829 59.5625L65.8829 21.75C65.8829 8.75 57.9454 0 46.3204 0ZM46.3204 138.875C62.6329 138.875 76.0704 126.875 78.3829 111.25C78.5704 109.812 78.6329 108.375 78.5704 107L67.1329 95.5625C68.8204 98.8125 69.7579 102.438 69.7579 106.25C69.7579 119.188 59.1954 129.812 46.3204 129.812C33.2579 129.812 22.7579 119.188 22.7579 106.25C22.7579 98.4375 26.4454 91.375 33.0704 86.9375C35.0079 85.625 35.7579 84.4375 35.7579 81.875L35.7579 63.6875L26.5704 54.5L26.5704 77.875C26.5704 79.75 26.3204 80.5 24.9454 81.6875C17.5079 88.4375 13.5704 96.75 13.5704 106.25C13.5704 124.25 28.1954 138.875 46.3204 138.875ZM46.2579 121.375C54.6329 121.375 61.3829 114.625 61.3829 106.188C61.3829 100.312 58.0704 95.5 53.2579 92.875C51.2579 91.8125 50.5704 91.0625 50.5704 88L50.5704 78.4375L41.9454 69.8125L41.9454 88C41.9454 91.0625 41.2579 91.8125 39.2579 92.875C34.4454 95.5 31.1329 100.312 31.1329 106.188C31.1329 114.625 37.8829 121.375 46.2579 121.375ZM77.6329 22.9375L91.1954 22.9375C93.3829 22.9375 94.8829 21.25 94.8829 19.3125C94.8829 17.375 93.3829 15.6875 91.1954 15.6875L77.6329 15.6875C75.4454 15.6875 73.9454 17.375 73.9454 19.3125C73.9454 21.25 75.4454 22.9375 77.6329 22.9375ZM77.6329 40.5L91.1954 40.5C93.3829 40.5 94.8829 38.8125 94.8829 36.875C94.8829 34.9375 93.3829 33.25 91.1954 33.25L77.6329 33.25C75.4454 33.25 73.9454 34.9375 73.9454 36.875C73.9454 38.8125 75.4454 40.5 77.6329 40.5ZM77.6329 58.0625L91.1954 58.0625C93.3829 58.0625 94.8829 56.375 94.8829 54.4375C94.8829 52.5 93.3829 50.75 91.1954 50.75L77.6329 50.75C75.4454 50.75 73.9454 52.5 73.9454 54.4375C73.9454 56.375 75.4454 58.0625 77.6329 58.0625ZM99.6329 117.188C101.508 119.062 104.633 119.062 106.445 117.188C108.258 115.312 108.32 112.25 106.445 110.375L8.25791 12.25C6.38291 10.375 3.32041 10.3125 1.38291 12.25C-0.429588 14.0625-0.492088 17.25 1.38291 19.0625Z" fill="#000000" fill-opacity="0.85"/>
 </g>
</svg>