<?xml version="1.0" encoding="UTF-8"?>
<!--Generator: Apple Native CoreSVG 175.5-->
<!DOCTYPE svg
PUBLIC "-//W3C//DTD SVG 1.1//EN"
       "http://www.w3.org/Graphics/SVG/1.1/DTD/svg11.dtd">
<svg version="1.1" xmlns="http://www.w3.org/2000/svg" xmlns:xlink="http://www.w3.org/1999/xlink" width="118.625" height="139.651">
 <g>
  <rect height="139.651" opacity="0" width="118.625" x="0" y="0"/>
  <path d="M58.3125 56.357C96.625 56.357 118.625 46.6695 118.625 33.482C118.625 21.357 101.125 13.9195 76.125 13.9195C57.375 13.9195 42.75 17.5445 31.6875 22.732C28.6875 24.1695 28 27.1695 29.125 29.2945C30.3125 31.6695 33.4375 32.2945 35.9375 31.232C45.9375 27.0445 58.5625 22.982 75.5625 22.982C96.625 22.982 108.812 27.982 108.812 33.4195C108.812 39.7945 89.8125 46.982 57.875 46.982C26.5 46.982 9.75 40.7945 9.75 28.982C9.75 22.0445 16.125 14.732 34.25 8.91948C37.3125 7.91948 38.625 5.48198 37.75 2.91948C36.875 0.356983 34.5625-0.643017 31.125 0.419483C10.125 6.66948 0 17.607 0 29.232C0 46.982 20.0625 56.357 58.3125 56.357ZM60.1875 76.982C79.75 76.982 97.75 73.732 110.5 68.5445C112.875 67.5445 114.062 65.0445 112.875 62.857C111.75 60.732 109.5 60.357 106.688 61.4195C95.125 65.857 78.3125 68.857 60.1875 68.857C46.8125 68.857 31.4375 67.1695 19.4375 63.6695C16.625 62.857 14.3125 63.732 13.625 66.107C12.9375 68.4195 14.125 70.607 17 71.482C29.9375 75.107 46.125 76.982 60.1875 76.982ZM64.4375 97.357C80.8125 97.232 96.1875 94.857 110.25 90.0445C113.562 88.9195 114.062 86.2945 113.25 84.357C112.375 82.1695 110.125 81.482 106.938 82.5445C93.0625 87.0445 79.25 89.1695 64.4375 89.1695C58.125 89.1695 51.5625 88.732 46.4375 88.0445C43.375 87.6695 41.5 88.857 41.125 91.107C40.6875 93.357 41.875 95.482 45.125 96.0445C49.9375 96.9195 56.6875 97.4195 64.4375 97.357ZM58.75 116.544C70.125 117.857 83.8125 117.544 95.5625 114.357C98.375 113.607 99.4375 111.107 98.75 108.919C98 106.607 95.8125 105.732 92.8125 106.482C82.6875 109.107 71 109.982 60.125 108.607C57.125 108.294 55.0625 109.669 54.75 111.982C54.4375 114.294 55.625 116.169 58.75 116.544ZM54.5 136.357C58.4375 136.919 63.0625 136.857 67.125 136.357C70 135.982 71.3125 134.169 71.125 131.857C70.875 129.794 69.25 128.294 66.1875 128.669C62.75 129.107 58.6875 129.107 55.1875 128.732C52.375 128.357 50.625 129.857 50.3125 131.857C50.0625 133.982 51.375 136.044 54.5 136.357Z" fill="#000000" fill-opacity="0.85"/>
 </g>
</svg>