<?xml version="1.0" encoding="UTF-8"?>
<!--Generator: Apple Native CoreSVG 175.5-->
<!DOCTYPE svg
PUBLIC "-//W3C//DTD SVG 1.1//EN"
       "http://www.w3.org/Graphics/SVG/1.1/DTD/svg11.dtd">
<svg version="1.1" xmlns="http://www.w3.org/2000/svg" xmlns:xlink="http://www.w3.org/1999/xlink" width="79.625" height="130.438">
 <g>
  <rect height="130.438" opacity="0" width="79.625" x="0" y="0"/>
  <path d="M0 125.625C0 128.25 2.0625 130.375 4.8125 130.375C42.3125 130.375 71.6875 104.875 71.6875 65.1875C71.6875 47.6875 57.25 33.25 39.8125 33.25C33.4375 33.25 27.5 35.375 22.8125 38.9375C31.9375 20.4375 51.4375 9.4375 74.8125 9.4375C77.5625 9.4375 79.625 7.3125 79.625 4.6875C79.625 2.0625 77.5625 0 74.8125 0C37.3125 0 8 25.4375 8 65.1875C8 82.625 22.4375 97.0625 39.8125 97.0625C46.25 97.0625 52.125 94.9375 56.8125 91.4375C47.6875 109.938 28.125 120.938 4.8125 120.938C2.0625 120.938 0 123 0 125.625ZM17.5 65.1875C17.5 52.9375 27.625 42.8125 39.8125 42.8125C52.0625 42.8125 62.1875 52.9375 62.1875 65.1875C62.1875 77.375 52.0625 87.5 39.8125 87.5C27.625 87.5 17.5 77.375 17.5 65.1875ZM30.75 65.1875C30.75 70.125 34.875 74.25 39.8125 74.25C44.8125 74.25 48.875 70.0625 48.875 65.1875C48.875 60.1875 44.8125 56.125 39.8125 56.125C34.875 56.125 30.75 60.1875 30.75 65.1875Z" fill="#000000" fill-opacity="0.85"/>
 </g>
</svg>