<?xml version="1.0" encoding="UTF-8"?>
<!--Generator: Apple Native CoreSVG 175.5-->
<!DOCTYPE svg
PUBLIC "-//W3C//DTD SVG 1.1//EN"
       "http://www.w3.org/Graphics/SVG/1.1/DTD/svg11.dtd">
<svg version="1.1" xmlns="http://www.w3.org/2000/svg" xmlns:xlink="http://www.w3.org/1999/xlink" width="128.305" height="110.938">
 <g>
  <rect height="110.938" opacity="0" width="128.305" x="0" y="0"/>
  <path d="M5.68029 37.625C14.6803 34.75 23.9928 33.25 32.8678 33.25C44.3678 33.25 52.8053 35.125 63.6803 35.125C74.9303 35.125 81.9303 27.5 81.9303 17.5625C81.9303 7.375 74.1178 0.0625 64.4928 0.0625C57.3678 0.0625 51.1178 4.5625 48.4928 10.5C47.4928 12.5625 47.8678 14.9375 50.0553 16.0625C52.0553 17.0625 54.4928 16.4375 55.8053 13.9375C57.1803 10.75 60.5553 8.25 64.4928 8.25C69.6803 8.25 73.7428 11.875 73.7428 17.5625C73.7428 23.25 69.8053 27 63.6803 27C53.3053 27 44.7428 25.125 32.8678 25.125C22.6803 25.125 12.3678 26.9375 3.18029 29.875C0.555288 30.625-0.444712 32.875 0.180288 35C0.805288 37.1875 2.86779 38.4375 5.68029 37.625ZM103.43 66.875C117.993 66.875 128.305 57.625 128.305 44.6875C128.305 31.9375 118.493 22.6875 106.305 22.6875C94.9928 22.6875 86.6178 30.5625 85.1178 40.875C84.7428 43.5 86.1803 45.5625 88.4303 45.875C90.7428 46.1875 92.7428 44.75 93.2428 41.8125C94.3053 35.25 99.7428 30.8125 106.305 30.8125C113.93 30.8125 120.118 36.5 120.118 44.6875C120.118 53 113.555 58.75 103.43 58.75C84.3678 58.75 63.8053 47.875 38.8053 47.875C25.9303 47.875 14.1803 49.9375 3.18029 53.8125C0.617788 54.75-0.444712 56.9375 0.180288 59.0625C0.805288 61.25 2.93029 62.5625 5.68029 61.625C15.8678 57.75 26.4928 56.0625 38.8053 56.0625C63.7428 56.0625 82.3678 66.875 103.43 66.875ZM63.7428 110.938C73.3678 110.938 80.8053 103.812 80.8053 93.625C80.8053 78.875 65.7428 70.625 37.9928 70.625C26.3678 70.625 13.8053 72.875 3.18029 76.5C0.617788 77.4375-0.444712 79.625 0.180288 81.75C0.805288 83.9375 2.93029 85.25 5.68029 84.3125C15.6178 80.75 26.7428 78.8125 37.9928 78.8125C60.6803 78.8125 72.6803 84.5 72.6803 93.625C72.6803 99.3125 68.6803 102.812 63.7428 102.812C58.8053 102.812 55.8053 99.5 54.9303 94.25C54.5553 91.9375 52.8678 90 50.1803 90.1875C47.3678 90.375 46.2428 92.75 46.6178 95.3125C47.7428 104 54.1803 110.938 63.7428 110.938Z" fill="#000000" fill-opacity="0.85"/>
 </g>
</svg>