<?xml version="1.0" encoding="UTF-8"?>
<!--Generator: Apple Native CoreSVG 175.5-->
<!DOCTYPE svg
PUBLIC "-//W3C//DTD SVG 1.1//EN"
       "http://www.w3.org/Graphics/SVG/1.1/DTD/svg11.dtd">
<svg version="1.1" xmlns="http://www.w3.org/2000/svg" xmlns:xlink="http://www.w3.org/1999/xlink" width="128.305" height="132.062">
 <g>
  <rect height="132.062" opacity="0" width="128.305" x="0" y="0"/>
  <path d="M5.68029 48.1875C14.6803 45.3125 23.9928 43.8125 32.8678 43.8125C44.3678 43.8125 52.8053 45.6875 63.6803 45.6875C74.9303 45.6875 81.9303 38.0625 81.9303 28.125C81.9303 17.9375 74.1178 10.625 64.4928 10.625C57.3678 10.625 51.1178 15.125 48.4928 21.0625C47.4928 23.125 47.8678 25.5 50.0553 26.625C52.0553 27.625 54.4928 27 55.8053 24.5C57.1803 21.3125 60.5553 18.8125 64.4928 18.8125C69.6803 18.8125 73.7428 22.4375 73.7428 28.125C73.7428 33.8125 69.8053 37.5625 63.6803 37.5625C53.3053 37.5625 44.7428 35.6875 32.8678 35.6875C22.6803 35.6875 12.3678 37.5 3.18029 40.4375C0.555288 41.1875-0.444712 43.4375 0.180288 45.5625C0.805288 47.75 2.86779 49 5.68029 48.1875ZM103.43 77.4375C117.993 77.4375 128.305 68.1875 128.305 55.25C128.305 42.5 118.493 33.25 106.305 33.25C94.9928 33.25 86.6178 41.125 85.1178 51.4375C84.7428 54.0625 86.1803 56.125 88.4303 56.4375C90.7428 56.75 92.7428 55.3125 93.2428 52.375C94.3053 45.8125 99.7428 41.375 106.305 41.375C113.93 41.375 120.118 47.0625 120.118 55.25C120.118 63.5625 113.555 69.3125 103.43 69.3125C84.3678 69.3125 63.8053 58.4375 38.8053 58.4375C25.9303 58.4375 14.1803 60.5 3.18029 64.375C0.617788 65.3125-0.444712 67.5 0.180288 69.625C0.805288 71.8125 2.93029 73.125 5.68029 72.1875C15.8678 68.3125 26.4928 66.625 38.8053 66.625C63.7428 66.625 82.3678 77.4375 103.43 77.4375ZM63.7428 121.5C73.3678 121.5 80.8053 114.375 80.8053 104.188C80.8053 89.4375 65.7428 81.1875 37.9928 81.1875C26.3678 81.1875 13.8053 83.4375 3.18029 87.0625C0.617788 88-0.444712 90.1875 0.180288 92.3125C0.805288 94.5 2.93029 95.8125 5.68029 94.875C15.6178 91.3125 26.7428 89.375 37.9928 89.375C60.6803 89.375 72.6803 95.0625 72.6803 104.188C72.6803 109.875 68.6803 113.375 63.7428 113.375C58.8053 113.375 55.8053 110.062 54.9303 104.812C54.5553 102.5 52.8678 100.562 50.1803 100.75C47.3678 100.938 46.2428 103.312 46.6178 105.875C47.7428 114.562 54.1803 121.5 63.7428 121.5ZM108.868 22.625C110.18 22.625 111.243 21.4375 111.118 20L110.743 14.8125L115.118 17.75C116.118 18.4375 117.743 18.1875 118.493 17.0625C119.305 15.875 118.743 14.1875 117.368 13.625L112.743 11.3125L117.493 8.9375C118.68 8.3125 119.243 6.8125 118.555 5.5625C117.93 4.4375 116.18 4.0625 115.055 4.875L110.743 7.8125L111.18 2.6875C111.305 1.25 110.243 0 108.868 0C107.368 0 106.305 1.125 106.43 2.625L106.805 7.875L102.368 4.875C101.243 4.125 99.6803 4.375 99.0553 5.5625C98.3053 6.8125 98.8053 8.3125 100.055 8.9375L104.743 11.3125L100.118 13.625C98.8053 14.1875 98.2428 15.75 98.9928 17.0625C99.6178 18.1875 101.243 18.5 102.368 17.75L106.805 14.8125L106.493 20C106.43 21.5 107.43 22.625 108.868 22.625ZM108.868 112.25C110.18 112.25 111.243 111.062 111.118 109.688L110.743 104.5L115.118 107.438C116.118 108.125 117.743 107.875 118.493 106.688C119.305 105.5 118.743 103.812 117.368 103.312L112.743 100.938L117.493 98.5625C118.68 98 119.243 96.5 118.555 95.1875C117.93 94.0625 116.18 93.6875 115.055 94.5L110.743 97.4375L111.18 92.3125C111.305 90.9375 110.243 89.6875 108.868 89.6875C107.368 89.6875 106.305 90.8125 106.43 92.25L106.805 97.5L102.368 94.5C101.243 93.75 99.6803 94 99.0553 95.1875C98.3053 96.5 98.8053 97.9375 100.055 98.5625L104.743 100.938L100.118 103.25C98.8053 103.812 98.2428 105.375 98.9928 106.688C99.6178 107.812 101.243 108.125 102.368 107.375L106.805 104.438L106.493 109.688C106.43 111.125 107.43 112.25 108.868 112.25Z" fill="#000000" fill-opacity="0.85"/>
 </g>
</svg>